<svg id="Livello_1" data-name="Livello 1" xmlns="http://www.w3.org/2000/svg" viewBox="0 0 150 150"><defs><style>.cls-1{fill:#b38bfc;}.cls-2{fill:#fda274;}.cls-3{fill:none;stroke:#7f5dc8;}</style></defs><title>Sugar Icons</title><path class="cls-1" d="M107.045,45.1a27.5,27.5,0,0,0-49.709,1.3A19.995,19.995,0,1,0,50,85h55a20,20,0,0,0,2.045-39.9Z"/><polygon class="cls-2" points="80 50 80 85 95 85 75 125 75 90 60 90 80 50"/><path class="cls-3" d="M85,80h15a20,20,0,0,0,2.045-39.9,27.5,27.5,0,0,0-49.709,1.3A19.995,19.995,0,1,0,45,80H60"/></svg>