<svg id="Livello_1" data-name="Livello 1" xmlns="http://www.w3.org/2000/svg" viewBox="0 0 150 150"><defs><style>.cls-1{fill:#b38bfc;}.cls-2{fill:#7f5dc8;}.cls-3{fill:#fda274;}.cls-4{fill:none;stroke:#7f5dc8;stroke-miterlimit:10;}</style></defs><title>Sugar Icons</title><path class="cls-1" d="M55.988,32.5H99.012A5.988,5.988,0,0,1,105,38.488V98.87A13.63,13.63,0,0,1,91.37,112.5H54.791A4.791,4.791,0,0,1,50,107.709V38.488A5.988,5.988,0,0,1,55.988,32.5Z"/><path class="cls-2" d="M68.834,82.5H66.166A1.166,1.166,0,0,1,65,81.334V78.666A1.166,1.166,0,0,0,63.834,77.5H61.166A1.166,1.166,0,0,0,60,78.666v2.668A1.166,1.166,0,0,1,58.834,82.5H56.166A1.166,1.166,0,0,0,55,83.666v2.668A1.166,1.166,0,0,0,56.166,87.5h2.668A1.166,1.166,0,0,1,60,88.666v2.668A1.166,1.166,0,0,0,61.166,92.5h2.668A1.166,1.166,0,0,0,65,91.334V88.666A1.166,1.166,0,0,1,66.166,87.5h2.668A1.166,1.166,0,0,0,70,86.334V83.666A1.166,1.166,0,0,0,68.834,82.5Z"/><circle class="cls-2" cx="97.5" cy="85" r="2.5"/><circle class="cls-3" cx="87.5" cy="90" r="2.5"/><path class="cls-2" d="M75,103.5H70a1,1,0,0,1,0-2h5a1,1,0,0,1,0,2Z"/><path class="cls-2" d="M85,103.5H80a1,1,0,0,1,0-2h5a1,1,0,0,1,0,2Z"/><path class="cls-2" d="M57.63,37.5H97.37A2.63,2.63,0,0,1,100,40.13V70.52a1.98,1.98,0,0,1-1.98,1.98H56.98A1.98,1.98,0,0,1,55,70.52V40.13A2.63,2.63,0,0,1,57.63,37.5Z"/><path class="cls-4" d="M80,112.8a4.7,4.7,0,0,1-4.7,4.7H49.7a4.7,4.7,0,0,1-4.7-4.7V42.2a4.7,4.7,0,0,1,4.7-4.7"/></svg>