<svg id="Livello_1" data-name="Livello 1" xmlns="http://www.w3.org/2000/svg" viewBox="0 0 150 150"><defs><style>.cls-1{fill:none;stroke:#7f5dc8;stroke-miterlimit:10;}.cls-2{fill:#b38bfc;}.cls-3{fill:#fda274;}.cls-4{fill:#7f5dc8;}</style></defs><title>Sugar Icons</title><path class="cls-1" d="M99.783,107.322c0,13.807-40,13.807-40,0s8.954-25,20-25S99.783,93.515,99.783,107.322Z"/><rect class="cls-2" x="59.783" y="37.322" width="40" height="50" rx="20" ry="20"/><path class="cls-1" d="M79.783,67.322a7.5,7.5,0,0,1,10.607,0"/><path class="cls-1" d="M79.783,77.322h-5v-10a7.5,7.5,0,0,0-10.607,0"/><circle class="cls-3" cx="87.283" cy="95.178" r="2.5"/><path class="cls-4" d="M102.64,50.968q-.117-.568-.261-1.126a23.216,23.216,0,0,0-2.653-6.262,23.576,23.576,0,0,0-10.883-9.417q-.523-.222-1.059-.419-1.071-.394-2.188-.684a23.124,23.124,0,0,0-4.617-.707q-.594-.03-1.2-.031c-.429,0-.856.014-1.28.037-.138.008-.274.022-.412.032-.285.021-.57.043-.853.074-.16.018-.319.04-.478.061-.259.034-.516.07-.772.112-.164.027-.326.057-.489.088q-.375.07-.746.152-.24.053-.478.111c-.25.061-.5.127-.746.2-.149.042-.3.083-.447.128-.265.08-.527.167-.788.256-.125.043-.251.083-.375.127-.318.115-.632.238-.944.366-.063.026-.128.049-.191.076q-.578.244-1.141.517l-.028.014q-.534.261-1.053.549c-.084.046-.166.1-.25.144-.27.154-.538.311-.8.475-.1.062-.2.127-.3.191q-.367.236-.726.485c-.1.07-.2.141-.3.212q-.354.255-.7.522c-.092.072-.184.144-.275.217-.238.191-.47.387-.7.586-.075.065-.151.129-.226.2q-.387.345-.757.706c-.041.04-.084.079-.125.119A23.261,23.261,0,0,0,56.45,55.656V80.178a7.522,7.522,0,0,1-7.5,7.5,7.426,7.426,0,0,1-2.066-.3,12.49,12.49,0,0,0,24.5-1.941,20.151,20.151,0,0,1-10.95-13.116h.01a20.324,20.324,0,0,1-.613-3.67c-.029-.44-.049-.882-.049-1.33V62.917a5.594,5.594,0,0,1,5.594-5.594H74.97a32.448,32.448,0,0,0,24.621,4.165,5.579,5.579,0,0,1,.191,1.43v4.406c0,.438-.019.872-.047,1.3a20.324,20.324,0,0,1-.616,3.7h.012a20.144,20.144,0,0,1-10.218,12.76,20.087,20.087,0,0,1,3.169,2.535,9.864,9.864,0,0,0,1.033.06,10.029,10.029,0,0,0,10-10V55.656A23.206,23.206,0,0,0,102.64,50.968Z"/></svg>