<svg id="Livello_1" data-name="Livello 1" xmlns="http://www.w3.org/2000/svg" viewBox="0 0 150 150"><defs><style>.cls-1{fill:#7f5dc8;}.cls-2,.cls-3{fill:none;}.cls-2{stroke:#7f5dc8;}.cls-3{stroke:#b38bfc;stroke-width:5px;}</style></defs><title>Sugar Icons</title><path class="cls-1" d="M107.045,57.6a27.5,27.5,0,0,0-49.709,1.3A19.995,19.995,0,1,0,50,97.5h55a20,20,0,0,0,2.045-39.9Z"/><path class="cls-2" d="M102.045,52.6a27.5,27.5,0,0,0-49.709,1.3A19.995,19.995,0,1,0,45,92.5h55a20,20,0,0,0,2.045-39.9Z"/><line class="cls-3" x1="65" y1="77.5" x2="44.793" y2="112.5"/><line class="cls-3" x1="80" y1="77.5" x2="59.793" y2="112.5"/><line class="cls-3" x1="95.207" y1="77.5" x2="75" y2="112.5"/></svg>