<svg id="Livello_1" data-name="Livello 1" xmlns="http://www.w3.org/2000/svg" viewBox="0 0 150 150"><defs><style>.cls-1{fill:none;stroke:#7f5dc8;}.cls-2{fill:#7f5dc8;}.cls-3{fill:#b38bfc;}.cls-4{fill:#fda274;}</style></defs><title>Sugar Icons</title><path class="cls-1" d="M70.508,90a26.076,26.076,0,0,0,0-30"/><path class="cls-1" d="M80.254,90a26.076,26.076,0,0,0,0-30"/><path class="cls-1" d="M61.015,85a14.54,14.54,0,0,0,0-20"/><path class="cls-2" d="M59.142,75a10,10,0,0,1-10,10c-5.523,0-5.523-20,0-20A10,10,0,0,1,59.142,75Z"/><path class="cls-3" d="M90,87.019a2.7,2.7,0,0,0,3.309,2.615,15,15,0,0,0,0-29.268A2.7,2.7,0,0,0,90,62.981Z"/><circle class="cls-4" cx="97.5" cy="72.5" r="2.5"/><line class="cls-1" x1="55" y1="75" x2="90" y2="75"/></svg>