<svg id="Livello_1" data-name="Livello 1" xmlns="http://www.w3.org/2000/svg" viewBox="0 0 150 150"><defs><style>.cls-1{fill:#b38bfc;}.cls-2{fill:#7f5dc8;}.cls-3{fill:none;stroke:#7f5dc8;stroke-miterlimit:10;}.cls-4{fill:#fda274;}</style></defs><title>Sugar Icons</title><rect class="cls-1" x="44.375" y="62.5" width="61.25" height="42.222"/><rect class="cls-2" x="34.375" y="102.5" width="81.25" height="5" rx="2.5" ry="2.5"/><path class="cls-2" d="M103.889,44.924A6.021,6.021,0,0,0,99.06,42.5H50.94a6.021,6.021,0,0,0-4.829,2.424L35.821,58.74a5.1,5.1,0,0,0,.041,6.206A6.747,6.747,0,0,0,47.064,64a.967.967,0,0,1,1.706,0,6.75,6.75,0,0,0,11.835,0,.967.967,0,0,1,1.706,0,6.75,6.75,0,0,0,11.836,0,.967.967,0,0,1,1.706,0,6.75,6.75,0,0,0,11.836,0,.967.967,0,0,1,1.706,0,6.75,6.75,0,0,0,11.835,0,.967.967,0,0,1,1.706,0,6.748,6.748,0,0,0,11.46.6,5.026,5.026,0,0,0-.207-5.845Z"/><path class="cls-3" d="M81.909,77.5H94.341a1.284,1.284,0,0,1,1.284,1.284V102.5a0,0,0,0,1,0,0h-15a0,0,0,0,1,0,0V78.784A1.284,1.284,0,0,1,81.909,77.5Z"/><rect class="cls-2" x="50.625" y="77.5" width="25" height="15" rx="2.029" ry="2.029"/><circle class="cls-4" cx="88.125" cy="90" r="2.5"/><path class="cls-3" d="M35.625,68.96a6.747,6.747,0,0,0,11.2-.949.967.967,0,0,1,1.706,0,6.75,6.75,0,0,0,11.835,0,.967.967,0,0,1,1.706,0,6.75,6.75,0,0,0,11.836,0,.967.967,0,0,1,1.706,0,6.75,6.75,0,0,0,11.836,0,.967.967,0,0,1,1.706,0,6.75,6.75,0,0,0,11.835,0,.967.967,0,0,1,1.706,0,6.748,6.748,0,0,0,11.46.6"/></svg>