<svg id="Livello_1" data-name="Livello 1" xmlns="http://www.w3.org/2000/svg" viewBox="0 0 150 150"><defs><style>.cls-1{fill:#7f5dc8;}.cls-2{fill:#b38bfc;}.cls-3{fill:none;stroke:#7f5dc8;stroke-miterlimit:10;}.cls-4{fill:#fda274;}</style></defs><title>Sugar Icons</title><path class="cls-1" d="M74.271,36.513C63.433,36.9,55,46.135,55,56.979V66.5a3,3,0,0,0,3,3h0a3,3,0,0,0,3-3V56.906A14.269,14.269,0,0,1,74.295,42.517,14.015,14.015,0,0,1,89,56.5v25h6v-25A20,20,0,0,0,74.271,36.513Z"/><rect class="cls-2" x="50" y="61.5" width="50" height="32" rx="2.149" ry="2.149"/><path class="cls-3" d="M80,92.893l-2.368-1.828a1.322,1.322,0,0,1,.025-2.112l1.084-.8a1.322,1.322,0,0,0,0-2.132l-1.048-.769a1.322,1.322,0,0,1,0-2.132l1.048-.769a1.322,1.322,0,0,0,0-2.132l-1.072-.787a1.323,1.323,0,0,1-.032-2.107c.931-.732,1.972-1.614,1.9-1.842A10,10,0,0,0,70,68.5h0V92.894a3.747,3.747,0,0,1-1.354,2.9,10,10,0,1,0,12.682-.022A3.7,3.7,0,0,1,80,92.893Z"/><circle class="cls-4" cx="75" cy="106.5" r="2.5"/></svg>