<svg id="Livello_1" data-name="Livello 1" xmlns="http://www.w3.org/2000/svg" viewBox="0 0 150 150"><defs><style>.cls-1{fill:none;stroke:#7f5dc8;stroke-miterlimit:10;}.cls-2{fill:#b38bfc;}.cls-3{fill:#7f5dc8;}.cls-4{fill:#fda274;}</style></defs><title>Sugar Icons</title><path class="cls-1" d="M60.864,72.5v-20a10,10,0,0,1,10-10h0a10,10,0,0,1,10,10v40a10,10,0,0,1-10,10h0a10,10,0,0,1-10-10"/><path class="cls-2" d="M40.864,70.429h0a10,10,0,0,1,14.142,0L76.219,91.642a10,10,0,0,1,0,14.142h0Z"/><path class="cls-2" d="M106.219,90.772h0a10.029,10.029,0,0,0,0-14.142L85.006,55.417a10.029,10.029,0,0,0-14.142,0h0v7.071h7.071v7.071h7.071V76.63h7.071V83.7h7.071v7.071Z"/><rect class="cls-3" x="65.864" y="47.5" width="20" height="60" rx="10" ry="10"/><rect class="cls-4" x="74.197" y="57.5" width="3.333" height="10"/><rect class="cls-4" x="74.197" y="57.5" width="3.333" height="10" transform="translate(13.364 138.364) rotate(-90)"/></svg>