<svg id="Livello_1" data-name="Livello 1" xmlns="http://www.w3.org/2000/svg" viewBox="0 0 150 150"><defs><style>.cls-1{fill:#7f5dc8;}.cls-1,.cls-2{stroke:#7f5dc8;stroke-miterlimit:10;}.cls-2,.cls-4{fill:none;}.cls-3{fill:#b38bfc;}.cls-5{fill:#fda274;}</style></defs><title>Sugar Icons</title><path class="cls-1" d="M54.977,59.5h21.04A6.98,6.98,0,0,1,83,66.483v35.149a7.871,7.871,0,0,1-7.871,7.871H55.868A7.871,7.871,0,0,1,48,101.632V66.483a6.98,6.98,0,0,1,6.98-6.98Z" transform="translate(78.936 -21.563) rotate(45)"/><path class="cls-2" d="M87.228,87.521l21.309-21.309a9.416,9.416,0,0,0,0-13.316L97.1,41.463a9.416,9.416,0,0,0-13.316,0L73.412,51.839"/><rect class="cls-3" x="77.746" y="49.754" width="25" height="20" transform="translate(68.685 -46.312) rotate(45)"/><path class="cls-4" d="M92.013,75.664l14.142-14.142L88.478,43.844,74.336,57.987,70.8,54.451,41.01,84.241a7.871,7.871,0,0,0,0,11.131L54.628,108.99a7.871,7.871,0,0,0,11.131,0L95.549,79.2Z"/><rect class="cls-5" x="87.746" y="47.683" width="5" height="10" transform="translate(63.685 -48.383) rotate(45)"/><rect class="cls-5" x="94.817" y="54.754" width="5" height="10" transform="translate(70.756 -51.312) rotate(45)"/></svg>