<svg id="Livello_1" data-name="Livello 1" xmlns="http://www.w3.org/2000/svg" viewBox="0 0 150 150"><defs><style>.cls-1{fill:#7f5dc8;}.cls-2,.cls-4{fill:none;stroke-miterlimit:10;}.cls-2{stroke:#7f5dc8;}.cls-3{fill:#b38bfc;}.cls-4{stroke:#b38bfc;}.cls-5{fill:#fda274;}</style></defs><title>Sugar Icons</title><rect class="cls-1" x="55" y="37.5" width="45" height="80" rx="8.498" ry="8.498"/><rect class="cls-2" x="50" y="32.5" width="45" height="80" rx="8.498" ry="8.498"/><path class="cls-3" d="M55,102.5V109a8.5,8.5,0,0,0,8.5,8.5h28A8.5,8.5,0,0,0,100,109v-6.5Z"/><line class="cls-4" x1="70" y1="42.5" x2="85" y2="42.5"/><rect class="cls-3" x="65" y="52.5" width="10" height="10" rx="3.628" ry="3.628"/><rect class="cls-3" x="80" y="52.5" width="10" height="10" rx="3.628" ry="3.628"/><rect class="cls-3" x="65" y="67.5" width="10" height="10" rx="3.628" ry="3.628"/><rect class="cls-3" x="80" y="67.5" width="10" height="10" rx="3.628" ry="3.628"/><rect class="cls-5" x="65" y="82.5" width="10" height="10" rx="3.628" ry="3.628"/><circle class="cls-1" cx="77.5" cy="110" r="2.5"/></svg>