<svg id="Livello_1" data-name="Livello 1" xmlns="http://www.w3.org/2000/svg" viewBox="0 0 150 150"><defs><style>.cls-1{fill:#b38bfc;}.cls-2{fill:none;stroke:#7f5dc8;stroke-miterlimit:10;}</style></defs><title>Sugar Icons</title><path class="cls-1" d="M101.968,48.963a1.254,1.254,0,0,0-1.741.307l-8.9,12.717a1.945,1.945,0,0,1-2.4.7,1.876,1.876,0,0,1-.733-2.771l8.962-12.8a1.25,1.25,0,0,0-2.048-1.434L86.2,58.4a1.945,1.945,0,0,1-2.4.7,1.876,1.876,0,0,1-.733-2.771l8.962-12.8A1.25,1.25,0,1,0,89.988,42.1L80.112,56.2a7.943,7.943,0,0,0-1.1,6.9A5.035,5.035,0,0,1,78.31,67.5L54,102.216a2.6,2.6,0,0,0,.329,3.44,2.5,2.5,0,0,0,3.685-.456L82.389,70.387A5.135,5.135,0,0,1,86.4,68.215a7.482,7.482,0,0,0,5.839-3.176L102.275,50.7A1.254,1.254,0,0,0,101.968,48.963Z"/><path class="cls-2" d="M101.968,48.963a1.254,1.254,0,0,0-1.741.307l-8.9,12.717a1.945,1.945,0,0,1-2.4.7,1.876,1.876,0,0,1-.733-2.771l8.962-12.8a1.25,1.25,0,0,0-2.048-1.434L86.2,58.4a1.945,1.945,0,0,1-2.4.7,1.876,1.876,0,0,1-.733-2.771l8.962-12.8A1.25,1.25,0,1,0,89.988,42.1L80.112,56.2a7.943,7.943,0,0,0-1.1,6.9A5.035,5.035,0,0,1,78.31,67.5L52.482,104.381a2.6,2.6,0,0,0,.329,3.44,2.5,2.5,0,0,0,3.685-.456L82.389,70.387A5.135,5.135,0,0,1,86.4,68.215a7.482,7.482,0,0,0,5.839-3.176L102.275,50.7A1.254,1.254,0,0,0,101.968,48.963Z"/><path class="cls-1" d="M69.335,60.555A39.8,39.8,0,0,0,48.885,45.45,1.07,1.07,0,0,0,47.7,47.088l16.314,23.3,12.3,17.565L88.388,105.2a2.5,2.5,0,0,0,3.482.614h0a2.5,2.5,0,0,0,.614-3.482L77.627,81.116a8.95,8.95,0,0,1-1.534-3.761A39.777,39.777,0,0,0,69.335,60.555Z"/><path class="cls-2" d="M69.335,60.555A39.8,39.8,0,0,0,48.885,45.45,1.07,1.07,0,0,0,47.7,47.088l16.314,23.3,12.3,17.565L89.9,107.365a2.5,2.5,0,0,0,3.482.614h0A2.5,2.5,0,0,0,94,104.5L77.627,81.116a8.95,8.95,0,0,1-1.534-3.761A39.777,39.777,0,0,0,69.335,60.555Z"/></svg>