<svg id="Livello_1" data-name="Livello 1" xmlns="http://www.w3.org/2000/svg" viewBox="0 0 150 150"><defs><style>.cls-1{fill:#7f5dc8;}.cls-2,.cls-4{fill:none;stroke-miterlimit:10;}.cls-2{stroke:#7f5dc8;}.cls-3{fill:#b38bfc;}.cls-4{stroke:#fda274;}</style></defs><title>Sugar Icons</title><path class="cls-1" d="M49.484,55h51.032A4.484,4.484,0,0,1,105,59.484V95a0,0,0,0,1,0,0H45a0,0,0,0,1,0,0V59.484A4.484,4.484,0,0,1,49.484,55Z"/><path class="cls-2" d="M44.484,50H95.516A4.484,4.484,0,0,1,100,54.484V90a0,0,0,0,1,0,0H40a0,0,0,0,1,0,0V54.484A4.484,4.484,0,0,1,44.484,50Z"/><path class="cls-3" d="M40,95h70a0,0,0,0,1,0,0v.521A4.479,4.479,0,0,1,105.521,100H44.479A4.479,4.479,0,0,1,40,95.521V95A0,0,0,0,1,40,95Z"/><line class="cls-4" x1="55" y1="65" x2="80" y2="65"/><line class="cls-4" x1="55" y1="70" x2="75" y2="70"/><line class="cls-4" x1="55" y1="75" x2="80" y2="75"/><line class="cls-4" x1="55" y1="80" x2="65" y2="80"/><line class="cls-4" x1="55" y1="85" x2="85" y2="85"/></svg>