<svg id="Livello_1" data-name="Livello 1" xmlns="http://www.w3.org/2000/svg" viewBox="0 0 150 150"><defs><style>.cls-1{fill:#7f5dc8;}.cls-2,.cls-3{fill:#b38bfc;}.cls-3,.cls-5{stroke:#7f5dc8;stroke-miterlimit:10;}.cls-4{fill:#fda274;}.cls-5{fill:none;}</style></defs><title>Sugar Icons</title><path class="cls-1" d="M50,70h55a0,0,0,0,1,0,0V91.457A3.543,3.543,0,0,1,101.457,95H53.543A3.543,3.543,0,0,1,50,91.457V70A0,0,0,0,1,50,70Z"/><path class="cls-2" d="M65,62.5h0A2.5,2.5,0,0,1,62.5,65h-10A2.5,2.5,0,0,0,50,67.5V70h55V62.5a2.5,2.5,0,0,0-2.5-2.5h-35A2.5,2.5,0,0,0,65,62.5Z"/><circle class="cls-3" cx="80" cy="80" r="15"/><circle class="cls-1" cx="80" cy="80" r="10"/><path class="cls-4" d="M57.5,60h0A2.5,2.5,0,0,1,60,62.5V65a0,0,0,0,1,0,0H55a0,0,0,0,1,0,0V62.5A2.5,2.5,0,0,1,57.5,60Z"/><rect class="cls-1" x="92" y="63" width="10" height="5" rx="1.037" ry="1.037"/><path class="cls-5" d="M49.707,95A4.707,4.707,0,0,1,45,90.293V59.707A4.707,4.707,0,0,1,49.707,55h50.585A4.707,4.707,0,0,1,105,59.707"/></svg>