<svg id="Livello_1" data-name="Livello 1" xmlns="http://www.w3.org/2000/svg" viewBox="0 0 150 150"><defs><style>.cls-1{fill:#b38bfc;}.cls-2{fill:#7f5dc8;}.cls-3{fill:none;stroke:#7f5dc8;stroke-miterlimit:10;}</style></defs><title>Sugar Icons</title><path class="cls-1" d="M54.3,48.376l-3.447,2.3a9.343,9.343,0,0,0-4.16,7.773h0v17.5a2.5,2.5,0,0,0,2.5,2.5h0a2.5,2.5,0,0,0,2.5-2.5V61.781L54.3,63.519a4.755,4.755,0,0,0,7.393-3.956V52.332A4.755,4.755,0,0,0,54.3,48.376Z"/><rect class="cls-2" x="54.19" y="51.781" width="5" height="10" rx="2.5" ry="2.5"/><rect class="cls-2" x="70.81" y="42.5" width="5" height="22.5" rx="2.5" ry="2.5"/><circle class="cls-2" cx="78.31" cy="45" r="7.5"/><path class="cls-3" d="M90.042,112.5h-32.7a8.069,8.069,0,0,1-8.069-8.069V77.5"/><path class="cls-3" d="M103.31,112.5H90.042A16.732,16.732,0,0,1,73.31,95.768V62.5"/></svg>