<svg id="Livello_1" data-name="Livello 1" xmlns="http://www.w3.org/2000/svg" viewBox="0 0 150 150"><defs><style>.cls-1{fill:#b38bfc;}.cls-2{fill:none;stroke:#7f5dc8;stroke-miterlimit:10;}.cls-3{fill:#7f5dc8;}.cls-4{fill:#fda274;}</style></defs><title>Sugar Icons</title><path class="cls-1" d="M62.679,47.5H92.321A5.179,5.179,0,0,1,97.5,52.679V87.5a20,20,0,0,1-20,20h0a20,20,0,0,1-20-20V52.679A5.179,5.179,0,0,1,62.679,47.5Z"/><path class="cls-2" d="M72.5,102.5a19.978,19.978,0,0,1-20-20V47.679A5.179,5.179,0,0,1,57.679,42.5H87.321A5.179,5.179,0,0,1,92.5,47.679V78.75"/><circle class="cls-3" cx="77.5" cy="87.5" r="15"/><polygon class="cls-4" points="77.5 72.5 72.5 87.5 82.5 87.5 77.5 72.5"/><polygon class="cls-1" points="77.5 102.5 82.5 87.5 72.5 87.5 77.5 102.5"/></svg>