<svg id="Livello_1" data-name="Livello 1" xmlns="http://www.w3.org/2000/svg" viewBox="0 0 150 150"><defs><style>.cls-1{fill:#7f5dc8;}.cls-2{fill:#b38bfc;}.cls-3{fill:#fda274;}.cls-4{fill:none;stroke:#7f5dc8;stroke-miterlimit:10;}</style></defs><title>Sugar Icons</title><rect class="cls-1" x="52.5" y="60.325" width="5" height="5"/><path class="cls-2" d="M102.5,57.825l-45.922,2.5A4.078,4.078,0,0,0,52.5,64.4V90.6a4.078,4.078,0,0,0,4.078,4.078H98.422A4.078,4.078,0,0,0,102.5,90.6Z"/><circle class="cls-3" cx="66.422" cy="77.175" r="2.5"/><path class="cls-1" d="M52.5,60.325H100a2.507,2.507,0,0,0,2.5-2.5h0a2.507,2.507,0,0,0-2.5-2.5H57.5a5,5,0,0,0-5,5Z"/><rect class="cls-3" x="57.5" y="57.677" width="41.422" height="2.649"/><path class="cls-4" d="M68.009,70.325H52.5v-5a5.015,5.015,0,0,0-5,5V80.834a4.491,4.491,0,0,0,4.491,4.491H68.009A4.491,4.491,0,0,0,72.5,80.834V74.817A4.491,4.491,0,0,0,68.009,70.325Z"/></svg>