<svg id="Livello_1" data-name="Livello 1" xmlns="http://www.w3.org/2000/svg" viewBox="0 0 150 150"><defs><style>.cls-1{fill:#b38bfc;}.cls-2{fill:#7f5dc8;}</style></defs><title>Sugar Icons</title><polygon class="cls-1" points="114.975 99.432 98.167 72.538 89.325 79.432 84.753 75.866 70.025 99.432 114.975 99.432"/><path class="cls-1" d="M92.5,65.755l4.112,6.579-7.288,5.682-3.019-2.354L92.5,65.755m0-1.324a1.074,1.074,0,0,0-.918.509L84.753,75.866l4.572,3.565,8.841-6.894-4.748-7.6a1.074,1.074,0,0,0-.918-.509Z"/><path class="cls-2" d="M65.025,51.568a.2.2,0,0,1,.176.1L73.14,64.9l-3.116,3.116-4.293-4.293-.981-.981-.621,1.241L59.9,72.443l-3.956-5.934,8.9-14.841a.2.2,0,0,1,.176-.1m0-1a1.194,1.194,0,0,0-1.033.585l-9.23,15.383,5.263,7.895,5-10,5,5L74.4,65.057l-8.342-13.9a1.194,1.194,0,0,0-1.033-.585Z"/><polygon class="cls-2" points="95.025 99.432 74.4 65.057 70.025 69.432 65.025 64.432 60.025 74.432 54.761 66.537 35.025 99.432 95.025 99.432"/></svg>