<svg id="Livello_1" data-name="Livello 1" xmlns="http://www.w3.org/2000/svg" viewBox="0 0 150 150"><defs><style>.cls-1{fill:#b38bfc;}.cls-2,.cls-3{fill:none;stroke:#7f5dc8;stroke-miterlimit:10;}.cls-3{stroke-width:3px;}.cls-4{fill:#7f5dc8;}</style></defs><title>Sugar Icons</title><path class="cls-1" d="M104.532,52.5H45.468A2.967,2.967,0,0,0,42.5,55.467V89.532A2.968,2.968,0,0,0,45.468,92.5h59.065a2.968,2.968,0,0,0,2.968-2.968V55.467A2.967,2.967,0,0,0,104.532,52.5ZM57.5,86.5a10,10,0,1,1,10-10A10,10,0,0,1,57.5,86.5Zm35,0a10,10,0,1,1,10-10A10,10,0,0,1,92.5,86.5Z"/><circle class="cls-2" cx="92.5" cy="76.5" r="10"/><line class="cls-3" x1="92.5" y1="66.5" x2="92.5" y2="69"/><line class="cls-3" x1="92.5" y1="84" x2="92.5" y2="86.5"/><line class="cls-3" x1="82.5" y1="76.5" x2="85" y2="76.5"/><line class="cls-3" x1="100" y1="76.5" x2="102.5" y2="76.5"/><line class="cls-3" x1="85.429" y1="69.429" x2="87.197" y2="71.197"/><line class="cls-3" x1="97.803" y1="81.804" x2="99.571" y2="83.571"/><line class="cls-3" x1="85.429" y1="83.571" x2="87.197" y2="81.804"/><line class="cls-3" x1="97.803" y1="71.197" x2="99.571" y2="69.429"/><circle class="cls-2" cx="57.497" cy="76.5" r="10"/><line class="cls-3" x1="57.497" y1="66.5" x2="57.497" y2="69"/><line class="cls-3" x1="57.497" y1="84" x2="57.497" y2="86.5"/><line class="cls-3" x1="47.497" y1="76.5" x2="49.997" y2="76.5"/><line class="cls-3" x1="64.997" y1="76.5" x2="67.497" y2="76.5"/><line class="cls-3" x1="50.425" y1="69.429" x2="52.193" y2="71.197"/><line class="cls-3" x1="62.8" y1="81.804" x2="64.568" y2="83.571"/><line class="cls-3" x1="50.425" y1="83.571" x2="52.193" y2="81.804"/><line class="cls-3" x1="62.8" y1="71.197" x2="64.568" y2="69.429"/><path class="cls-4" d="M101.153,62.5H48.847a4.071,4.071,0,0,1-3.454-1.683l-2.481-3.911c-1.284-2.024.583-4.406,3.454-4.406h57.267c2.871,0,4.738,2.382,3.454,4.406l-2.481,3.911A4.071,4.071,0,0,1,101.153,62.5Z"/><rect class="cls-2" x="37.5" y="57.5" width="75" height="40" rx="4.514" ry="4.514"/><line class="cls-2" x1="67.5" y1="87.5" x2="82.5" y2="87.5"/></svg>