<svg id="Livello_1" data-name="Livello 1" xmlns="http://www.w3.org/2000/svg" viewBox="0 0 150 150"><defs><style>.cls-1{fill:#b38bfc;}.cls-2{fill:none;stroke:#7f5dc8;stroke-miterlimit:10;}</style></defs><title>Sugar Icons</title><path class="cls-1" d="M103.679,95H97.8a1.48,1.48,0,0,1-1.48-1.48V86.48A1.48,1.48,0,0,0,94.841,85H87.8a1.48,1.48,0,0,0-1.48,1.48v7.04A1.48,1.48,0,0,1,84.841,95H82.8a1.48,1.48,0,0,1-1.48-1.48V71.48A1.48,1.48,0,0,0,79.841,70H72.8a1.48,1.48,0,0,0-1.48,1.48V93.52A1.48,1.48,0,0,1,69.841,95H67.8a1.48,1.48,0,0,1-1.48-1.48V51.48A1.48,1.48,0,0,0,64.841,50H57.8a1.48,1.48,0,0,0-1.48,1.48V93.52A1.48,1.48,0,0,1,54.841,95h-8.52a2.6,2.6,0,0,0-2.63,2.242A2.5,2.5,0,0,0,46.179,100h57.643a2.5,2.5,0,0,0,2.487-2.758A2.6,2.6,0,0,0,103.679,95Z"/><line class="cls-2" x1="46.321" y1="55" x2="51.321" y2="55"/><line class="cls-2" x1="46.321" y1="50" x2="51.321" y2="50"/><line class="cls-2" x1="46.321" y1="60" x2="51.321" y2="60"/><line class="cls-2" x1="46.321" y1="65" x2="51.321" y2="65"/><line class="cls-2" x1="46.321" y1="70" x2="51.321" y2="70"/><line class="cls-2" x1="46.321" y1="75" x2="51.321" y2="75"/><line class="cls-2" x1="46.321" y1="80" x2="51.321" y2="80"/><line class="cls-2" x1="46.321" y1="85" x2="51.321" y2="85"/><line class="cls-2" x1="46.321" y1="90" x2="51.321" y2="90"/></svg>