<svg id="Livello_1" data-name="Livello 1" xmlns="http://www.w3.org/2000/svg" viewBox="0 0 150 150"><defs><style>.cls-1{fill:#b38bfc;}.cls-2{fill:none;stroke:#7f5dc8;stroke-miterlimit:10;}</style></defs><title>Sugar Icons</title><path class="cls-1" d="M103.631,102.938C88.01,118.559,34.977,65.526,50.6,49.9l.57-.57a9.193,9.193,0,0,1,13,0l1.141,1.141a9.193,9.193,0,0,1,0,13L63.7,65.09a3.525,3.525,0,0,0,0,4.985L83.461,89.839a3.525,3.525,0,0,0,4.985,0l1.614-1.614a9.193,9.193,0,0,1,13,0l1.141,1.141a9.193,9.193,0,0,1,0,13Z"/><path class="cls-2" d="M98.986,100.511C83.365,116.132,30.332,63.1,45.953,47.478l.57-.57a9.193,9.193,0,0,1,13,0l1.141,1.141a9.193,9.193,0,0,1,0,13l-1.614,1.614a3.525,3.525,0,0,0,0,4.985L78.816,87.412a3.525,3.525,0,0,0,4.985,0L85.414,85.8a9.193,9.193,0,0,1,13,0l1.141,1.141a9.193,9.193,0,0,1,0,13Z"/><path class="cls-2" d="M74.237,61.62a17.5,17.5,0,0,1,17.5,17.5"/><path class="cls-2" d="M71.22,50.5a31.642,31.642,0,0,1,31.642,31.642"/></svg>