<svg id="Livello_1" data-name="Livello 1" xmlns="http://www.w3.org/2000/svg" viewBox="0 0 150 150"><defs><style>.cls-1{fill:#b38bfc;}.cls-2{fill:#7f5dc8;}.cls-3{fill:none;stroke:#7f5dc8;stroke-miterlimit:10;}</style></defs><title>Sugar Icons</title><rect class="cls-1" x="45" y="50" width="70" height="40" rx="4.645" ry="4.645"/><rect class="cls-2" x="40" y="55" width="70" height="40" rx="4.645" ry="4.645"/><rect class="cls-1" x="35" y="60" width="70" height="40" rx="4.645" ry="4.645"/><path class="cls-3" d="M80,65H98.173A1.827,1.827,0,0,1,100,66.827V93.173A1.827,1.827,0,0,1,98.173,95H80"/><path class="cls-3" d="M60,95H41.827A1.827,1.827,0,0,1,40,93.173V66.827A1.827,1.827,0,0,1,41.827,65H60"/><circle class="cls-2" cx="70" cy="80" r="15"/><circle class="cls-1" cx="70" cy="80" r="10"/></svg>