<svg id="Livello_1" data-name="Livello 1" xmlns="http://www.w3.org/2000/svg" viewBox="0 0 150 150"><defs><style>.cls-1{fill:#b38bfc;}.cls-2{fill:none;stroke:#7f5dc8;stroke-miterlimit:10;}</style></defs><title>Sugar Icons</title><path class="cls-1" d="M46.321,95h8.52a1.48,1.48,0,0,0,1.48-1.48V86.48A1.48,1.48,0,0,1,57.8,85h7.04a1.48,1.48,0,0,1,1.48,1.48v7.04A1.48,1.48,0,0,0,67.8,95h2.04a1.48,1.48,0,0,0,1.48-1.48V71.48A1.48,1.48,0,0,1,72.8,70h7.04a1.48,1.48,0,0,1,1.48,1.48V93.52A1.48,1.48,0,0,0,82.8,95h2.04a1.48,1.48,0,0,0,1.48-1.48V51.48A1.48,1.48,0,0,1,87.8,50h7.04a1.48,1.48,0,0,1,1.48,1.48V93.52A1.48,1.48,0,0,0,97.8,95h5.877a2.6,2.6,0,0,1,2.63,2.242A2.5,2.5,0,0,1,103.821,100H46.179a2.5,2.5,0,0,1-2.487-2.758A2.6,2.6,0,0,1,46.321,95Z"/><line class="cls-2" x1="46.321" y1="55" x2="51.321" y2="55"/><line class="cls-2" x1="46.321" y1="50" x2="51.321" y2="50"/><line class="cls-2" x1="46.321" y1="60" x2="51.321" y2="60"/><line class="cls-2" x1="46.321" y1="65" x2="51.321" y2="65"/><line class="cls-2" x1="46.321" y1="70" x2="51.321" y2="70"/><line class="cls-2" x1="46.321" y1="75" x2="51.321" y2="75"/><line class="cls-2" x1="46.321" y1="80" x2="51.321" y2="80"/><line class="cls-2" x1="46.321" y1="85" x2="51.321" y2="85"/><line class="cls-2" x1="46.321" y1="90" x2="51.321" y2="90"/></svg>