<svg id="Livello_1" data-name="Livello 1" xmlns="http://www.w3.org/2000/svg" viewBox="0 0 150 150"><defs><style>.cls-1,.cls-3{fill:none;stroke:#7f5dc8;stroke-miterlimit:10;}.cls-2{fill:#b38bfc;}.cls-3{stroke-width:5px;}.cls-4{fill:#fda274;}.cls-5{fill:#7f5dc8;}</style></defs><title>Sugar Icons</title><path class="cls-1" d="M102.5,105a5,5,0,0,0,5-5V100a5,5,0,0,0-5-5h-5"/><path class="cls-2" d="M100.007,85H83.449a1.96,1.96,0,0,1-1.734-1.1A7.156,7.156,0,0,0,75.342,80H69.658a7.156,7.156,0,0,0-6.373,3.9A1.96,1.96,0,0,1,61.551,85H44.993A2.493,2.493,0,0,0,42.5,87.493v2.072A10.435,10.435,0,0,0,52.935,100H92.065A10.435,10.435,0,0,0,102.5,89.565V87.493A2.493,2.493,0,0,0,100.007,85Z"/><line class="cls-3" x1="72.5" y1="80" x2="72.5" y2="60"/><circle class="cls-4" cx="72.5" cy="55" r="10"/><path class="cls-1" d="M72.5,90v3.044A11.956,11.956,0,0,0,84.456,105H102.5"/><circle class="cls-5" cx="72.5" cy="90" r="2.5"/></svg>