<svg id="Livello_1" data-name="Livello 1" xmlns="http://www.w3.org/2000/svg" viewBox="0 0 150 150"><defs><style>.cls-1{fill:#b38bfc;}.cls-2,.cls-3{fill:none;stroke:#7f5dc8;}.cls-2{stroke-miterlimit:10;}.cls-3{stroke-linejoin:bevel;}</style></defs><title>Sugar Icons</title><path class="cls-1" d="M57.5,57.5H40A2.5,2.5,0,0,0,37.5,60h0A2.5,2.5,0,0,0,40,62.5H50A2.5,2.5,0,0,1,52.5,65h0A2.5,2.5,0,0,1,50,67.5h0A2.5,2.5,0,0,0,47.5,70h0A2.5,2.5,0,0,0,50,72.5h0A2.5,2.5,0,0,1,52.5,75h0A2.5,2.5,0,0,1,50,77.5H35A2.5,2.5,0,0,0,32.5,80h0A2.5,2.5,0,0,0,35,82.5H50A2.5,2.5,0,0,1,52.5,85h0A2.5,2.5,0,0,1,50,87.5H45A2.5,2.5,0,0,0,42.5,90h0A2.5,2.5,0,0,0,45,92.5h5A2.5,2.5,0,0,1,52.5,95h0A2.5,2.5,0,0,0,55,97.5h55a2.5,2.5,0,0,0,2.5-2.5V60a2.5,2.5,0,0,0-2.5-2.5Z"/><rect class="cls-2" x="57.5" y="52.5" width="60" height="40"/><polyline class="cls-3" points="81.917 73 57.5 92.5 57.5 52.5 87.5 77.5 117.5 52.5 117.5 92.5 93.125 73"/><line class="cls-2" x1="57.5" y1="67.5" x2="47.5" y2="67.5"/><line class="cls-2" x1="57.5" y1="72.5" x2="42.5" y2="72.5"/><line class="cls-2" x1="57.5" y1="92.5" x2="52.5" y2="92.5"/></svg>