<svg id="Livello_1" data-name="Livello 1" xmlns="http://www.w3.org/2000/svg" viewBox="0 0 150 150"><defs><style>.cls-1{fill:#e6bbfd;}.cls-2{fill:#b38bfc;}.cls-3{fill:#7f5dc8;}.cls-4{fill:#fda274;}.cls-5{fill:none;stroke:#7f5dc8;}</style></defs><title>Sugar Icons</title><path class="cls-1" d="M77.5,44.508a35,35,0,1,0,35,35A35,35,0,0,0,77.5,44.508Zm0,45a10,10,0,1,1,10-10A10,10,0,0,1,77.5,89.508Z"/><path class="cls-2" d="M77.5,39.508a35,35,0,0,0-35,35c0,11.892,5.934,23.675,15,30,5.67,3.956,12.562,0,20,0s14.331,3.954,20,0c9.067-6.325,15-18.106,15-30A35,35,0,0,0,77.5,39.508Zm0,45a10,10,0,1,1,10-10A10,10,0,0,1,77.5,84.508Z"/><rect class="cls-3" x="98.75" y="83.258" width="2.5" height="5" rx="1.25" ry="1.25" transform="translate(-27.455 52.447) rotate(-25.969)"/><rect class="cls-3" x="104.821" y="69.521" width="2.5" height="5" rx="1.25" ry="1.25" transform="translate(11.372 -14.41) rotate(8.21)"/><rect class="cls-4" x="93.75" y="90.758" width="2.5" height="5" rx="1.25" ry="1.25" transform="translate(188.258 -1.742) rotate(90)"/><rect class="cls-4" x="68.75" y="45.758" width="2.5" height="5" rx="1.25" ry="1.25" transform="translate(118.258 -21.742) rotate(90)"/><rect class="cls-3" x="73.072" y="54.648" width="2.5" height="5" rx="1.25" ry="1.25" transform="translate(-17.92 40.383) rotate(-27.256)"/><rect class="cls-4" x="58.75" y="83.258" width="2.5" height="5" rx="1.25" ry="1.25" transform="translate(145.758 25.758) rotate(90)"/><rect class="cls-3" x="62.663" y="94.498" width="2.5" height="5" rx="1.25" ry="1.25" transform="translate(13.178 -7.498) rotate(7.484)"/><rect class="cls-3" x="53.75" y="70.758" width="2.5" height="5" rx="1.25" ry="1.25" transform="translate(79.93 161.407) rotate(-158.894)"/><rect class="cls-3" x="98.75" y="58.258" width="2.5" height="5" rx="1.25" ry="1.25" transform="translate(160.758 -39.242) rotate(90)"/><rect class="cls-3" x="77.941" y="89.427" width="2.5" height="5" rx="1.25" ry="1.25" transform="translate(185.735 149.98) rotate(159.328)"/><rect class="cls-3" x="84.928" y="49.506" width="2.5" height="5" rx="1.25" ry="1.25" transform="translate(-2.844 5.035) rotate(-3.292)"/><rect class="cls-3" x="85" y="94.508" width="2.5" height="5" rx="1.25" ry="1.25"/><rect class="cls-4" x="94.241" y="69.767" width="2.5" height="5" rx="1.25" ry="1.25" transform="translate(215.244 71.569) rotate(142.547)"/><rect class="cls-3" x="53.75" y="58.258" width="2.5" height="5" rx="1.25" ry="1.25" transform="translate(59.072 -21.095) rotate(45)"/><path class="cls-5" d="M48.483,99.508a37.5,37.5,0,0,1,53.033-53.033"/></svg>