<svg id="Livello_1" data-name="Livello 1" xmlns="http://www.w3.org/2000/svg" viewBox="0 0 150 150"><defs><style>.cls-1{fill:#b38bfc;}.cls-2{fill:#7f5dc8;}.cls-3{fill:none;stroke:#7f5dc8;stroke-linecap:round;stroke-miterlimit:10;}</style></defs><title>Sugar Icons</title><path class="cls-1" d="M77.774,105h-3.96a3.684,3.684,0,0,1-3.612-2.962L66.675,84.407A3.684,3.684,0,0,1,70.288,80H81.3a3.684,3.684,0,0,1,3.612,4.407l-3.526,17.632A3.684,3.684,0,0,1,77.774,105Z"/><path class="cls-2" d="M69.158,85A19.309,19.309,0,0,1,57.7,81.215c-3.83-2.826-2.175-9.108,2.577-9.358q.119-.006.239-.008a2.092,2.092,0,0,0,2.1-1.754,2,2,0,0,0-1.985-2.247,10.5,10.5,0,0,0-6.05,1.909,3.045,3.045,0,0,1-4.718-2.274q-.095-.949-.1-1.923a19.521,19.521,0,0,1,9.62-16.782,2.052,2.052,0,0,0,1.02-2.262,2,2,0,0,0-2.948-1.244,23.439,23.439,0,0,0-8.38,8.309c-2.558,4.3-9.183,3.234-9.934-1.716a8.737,8.737,0,0,1-.1-1.229,2.073,2.073,0,0,0-1.763-2.07,2,2,0,0,0-2.238,1.986,12.724,12.724,0,0,0,8.592,12.017,3.159,3.159,0,0,1,2.129,2.992h0a23.316,23.316,0,0,0,4.6,13.926,1.971,1.971,0,0,0,.187.245A23.414,23.414,0,0,0,69.206,89a2,2,0,1,0-.048-4Z"/><path class="cls-1" d="M114.956,50.551a2,2,0,0,0-2.237-1.986,2.074,2.074,0,0,0-1.763,2.071,8.737,8.737,0,0,1-.1,1.221A5.351,5.351,0,0,1,101,53.717a23.443,23.443,0,0,0-8.4-8.408,2.059,2.059,0,0,0-2.619.426,2,2,0,0,0,.546,2.995,19.521,19.521,0,0,1,9.7,16.829q0,.976-.1,1.928a3.056,3.056,0,0,1-4.778,2.228,10.5,10.5,0,0,0-5.843-1.866,2.085,2.085,0,0,0-2.127,1.7,2,2,0,0,0,1.979,2.3h.1c4.878.076,6.757,6.461,2.833,9.36A19.309,19.309,0,0,1,80.842,85a2,2,0,1,0-.048,4,23.414,23.414,0,0,0,18.657-9.27,1.971,1.971,0,0,0,.187-.245,23.316,23.316,0,0,0,4.6-13.926h0a3.159,3.159,0,0,1,2.129-2.992A12.723,12.723,0,0,0,114.956,50.551Z"/><path class="cls-3" d="M80.794,87A21.444,21.444,0,0,0,91.538,47"/><path class="cls-3" d="M97.947,78.425a8.576,8.576,0,0,0-8.576-8.576"/><path class="cls-3" d="M102.235,61.272a10.721,10.721,0,0,0,10.721-10.721"/></svg>