<svg id="Livello_1" data-name="Livello 1" xmlns="http://www.w3.org/2000/svg" viewBox="0 0 150 150"><defs><style>.cls-1{fill:#b38bfc;}.cls-2{fill:#7f5dc8;}.cls-3{fill:none;stroke:#7f5dc8;stroke-linecap:round;stroke-miterlimit:10;}</style></defs><title>Sugar Icons</title><path class="cls-1" d="M76.45,32.872a1.538,1.538,0,0,0-2.9,0C67.848,44.88,65.005,59.94,65.005,75s2.842,30.12,8.545,42.128a1.538,1.538,0,0,0,2.9,0C82.152,105.12,84.995,90.06,84.995,75S82.152,44.88,76.45,32.872Z"/><ellipse class="cls-2" cx="75" cy="75" rx="6.669" ry="12.73"/><line class="cls-3" x1="52.143" y1="75" x2="97.857" y2="75"/><path class="cls-2" d="M38.046,76.9V73.1a3.238,3.238,0,0,1,3.636-2.965c5.032.31,13.506,1.354,13.506,4.869h0c0,3.515-8.474,4.559-13.506,4.869A3.238,3.238,0,0,1,38.046,76.9Z"/><path class="cls-2" d="M118.046,73.1V76.9a3.238,3.238,0,0,1-3.636,2.965C109.377,79.559,100.9,78.515,100.9,75h0c0-3.515,8.474-4.559,13.506-4.869A3.238,3.238,0,0,1,118.046,73.1Z"/></svg>