<svg id="Livello_1" data-name="Livello 1" xmlns="http://www.w3.org/2000/svg" viewBox="0 0 150 150"><defs><style>.cls-1{fill:#b38bfc;}.cls-2{fill:#7f5dc8;}.cls-3,.cls-5{fill:none;stroke-miterlimit:10;}.cls-3{stroke:#7f5dc8;}.cls-4{fill:#fda274;}.cls-5{stroke:#fd7049;}</style></defs><title>Sugar Icons</title><path class="cls-1" d="M47.5,87.5h60a0,0,0,0,1,0,0v6.819a3.181,3.181,0,0,1-3.181,3.181H50.681A3.181,3.181,0,0,1,47.5,94.319V87.5A0,0,0,0,1,47.5,87.5Z"/><path class="cls-2" d="M50.681,47.5h53.637a3.181,3.181,0,0,1,3.181,3.181V87.5a0,0,0,0,1,0,0h-60a0,0,0,0,1,0,0V50.681A3.181,3.181,0,0,1,50.681,47.5Z"/><path class="cls-3" d="M82.5,92.5H99.319a3.181,3.181,0,0,0,3.181-3.181V45.681A3.181,3.181,0,0,0,99.319,42.5H45.681A3.181,3.181,0,0,0,42.5,45.681V89.319A3.181,3.181,0,0,0,45.681,92.5H72.5"/><circle class="cls-4" cx="77.5" cy="92.5" r="2.5"/><rect class="cls-4" x="72.5" y="97.5" width="10" height="10"/><line class="cls-5" x1="62.5" y1="107.5" x2="92.5" y2="107.5"/></svg>