<svg id="Livello_1" data-name="Livello 1" xmlns="http://www.w3.org/2000/svg" viewBox="0 0 150 150"><defs><style>.cls-1{fill:#b38bfc;}.cls-2{fill:#7f5dc8;}.cls-3{fill:#fda274;}.cls-4{fill:none;stroke:#7f5dc8;stroke-miterlimit:10;}</style></defs><title>Sugar Icons</title><path class="cls-1" d="M55,65.479l20,10v25L55.892,90.925A1.613,1.613,0,0,1,55,89.482Z"/><path class="cls-2" d="M95,65.479l-20,10v25l19.108-9.554A1.613,1.613,0,0,0,95,89.482Z"/><polygon class="cls-2" points="75 55.479 55 65.479 75 75.479 95 65.479 75 55.479"/><path class="cls-1" d="M75,55.479l4.616-9.233a.858.858,0,0,1,1.151-.384L99.233,55.1a.858.858,0,0,1,.384,1.151L95,65.479Z"/><path class="cls-1" d="M55,65.479l-4.616-9.233a.858.858,0,0,1,.384-1.151l18.466-9.233a.858.858,0,0,1,1.151.384L75,55.479Z"/><path class="cls-1" d="M75,75.479l-9.616,4.808a.858.858,0,0,1-.767,0L46.534,71.246a.858.858,0,0,1,0-1.534L55,65.479Z"/><path class="cls-1" d="M95,65.479l8.466,4.233a.858.858,0,0,1,0,1.534L85.384,80.287a.858.858,0,0,1-.767,0L75,75.479"/><path class="cls-3" d="M75,75.479l13.405-6.7a14.977,14.977,0,0,0-26.811,0Z"/><path class="cls-4" d="M51.649,75.479V91.388a1.883,1.883,0,0,0,1.042,1.685L75,104.228,97.31,93.073a1.883,1.883,0,0,0,1.041-1.685V75.479"/></svg>