<svg id="Livello_1" data-name="Livello 1" xmlns="http://www.w3.org/2000/svg" viewBox="0 0 150 150"><defs><style>.cls-1{fill:#b38bfc;}.cls-2{fill:none;stroke:#7f5dc8;stroke-miterlimit:10;}.cls-3{fill:#fda274;}.cls-4{fill:#7f5dc8;}</style></defs><title>Sugar Icons</title><path class="cls-1" d="M110,102.5s-32.312,5-47.5,5a27.5,27.5,0,0,1,0-55C77.688,52.5,110,62.5,110,102.5Z"/><path class="cls-2" d="M105,102.5H57.5a27.5,27.5,0,0,1,0-55C72.688,47.5,105,62.5,105,102.5Z"/><path class="cls-3" d="M115,47.5a5,5,0,1,0-8.12,3.878l-11.5,11.5,4.242,4.242,11.5-11.5A4.991,4.991,0,1,0,115,47.5Z"/><path class="cls-4" d="M97.164,82.405a12.071,12.071,0,0,1-17.339-.276c-4.948-5.265-3.82-13.644,1.808-18.175,4.613-3.714,10.921-5.5,15.921-6.36a6.356,6.356,0,0,1,7.352,7.335C103.948,70.515,101.833,77.737,97.164,82.405Z"/><path class="cls-4" d="M115.349,97.5H36.725a1.722,1.722,0,0,0-.955,3.155l9.833,6.556a1.722,1.722,0,0,0,.955.289h58.957a1.722,1.722,0,0,0,.955-.289l9.833-6.556A1.722,1.722,0,0,0,115.349,97.5Z"/></svg>