<svg id="Livello_1" data-name="Livello 1" xmlns="http://www.w3.org/2000/svg" viewBox="0 0 150 150"><defs><style>.cls-1,.cls-4{fill:none;}.cls-2{fill:#e6bbfd;}.cls-3{fill:#b38bfc;}.cls-4{stroke:#7f5dc8;}.cls-5{fill:#fda274;}</style></defs><title>Sugar Icons</title><path class="cls-1" d="M62.5,72.5a2.5,2.5,0,0,0,2.758,2.487A2.6,2.6,0,0,0,67.5,72.358V62.5A2.5,2.5,0,0,1,69.953,60,2.533,2.533,0,0,0,72.5,57.5V55h-10V72.5Z"/><polygon class="cls-2" points="62.5 45 57.5 45 58.269 55 62.5 55 62.5 45"/><polygon class="cls-2" points="72.5 45 72.5 55 96.731 55 97.5 45 72.5 45"/><path class="cls-3" d="M72.5,57.5A2.533,2.533,0,0,1,69.953,60,2.5,2.5,0,0,0,67.5,62.5v9.858a2.6,2.6,0,0,1-2.242,2.629A2.5,2.5,0,0,1,62.5,72.5V55H58.269L62.5,110h30l4.231-55H72.5Z"/><path class="cls-4" d="M72.5,44.932V57.5A2.533,2.533,0,0,1,69.953,60,2.5,2.5,0,0,0,67.5,62.5v9.858a2.6,2.6,0,0,1-2.242,2.629A2.5,2.5,0,0,1,62.5,72.5V44.932A4.932,4.932,0,0,0,57.568,40H52.5l5,65h30l5-65H77.432A4.932,4.932,0,0,0,72.5,44.932Z"/><circle class="cls-5" cx="85" cy="62.5" r="2.5"/><circle class="cls-5" cx="75" cy="77.5" r="2.5"/><circle class="cls-5" cx="85" cy="72.5" r="2.5"/></svg>