<svg id="Livello_1" data-name="Livello 1" xmlns="http://www.w3.org/2000/svg" viewBox="0 0 150 150"><defs><style>.cls-1,.cls-3{fill:none;}.cls-1{stroke:#7f5dc8;}.cls-2{fill:#fda274;}.cls-3{stroke:#fd7049;}</style></defs><title>Sugar Icons</title><path class="cls-1" d="M97.5,55h0a10,10,0,0,0-10-10H69.465A26.965,26.965,0,0,0,42.5,71.965V80a15,15,0,0,0,15,15h0a5,5,0,0,1,5,5h0a5,5,0,0,0,5,5H87.467A20.033,20.033,0,0,0,107.5,84.967V65a5,5,0,0,0-5-5h0A5,5,0,0,1,97.5,55Z"/><circle class="cls-2" cx="70" cy="72.5" r="12.5"/><circle class="cls-3" cx="65" cy="67.5" r="12.5"/></svg>