<svg id="Livello_1" data-name="Livello 1" xmlns="http://www.w3.org/2000/svg" viewBox="0 0 150 150"><defs><style>.cls-1{fill:#b38bfc;}.cls-2{fill:none;stroke:#7f5dc8;}.cls-3{fill:#e6bbfd;}</style></defs><title>Sugar Icons</title><path class="cls-1" d="M107.045,52.6a27.5,27.5,0,0,0-49.709,1.3A19.995,19.995,0,1,0,50,92.5h55a20,20,0,0,0,2.045-39.9Z"/><path class="cls-2" d="M90,87.5h10a20,20,0,0,0,2.045-39.9,27.5,27.5,0,0,0-49.709,1.3A19.995,19.995,0,1,0,45,87.5H60"/><polygon class="cls-3" points="84.339 90.146 90.137 79.277 78.531 79.29 73.89 70.612 69.255 79.3 57.667 79.313 63.465 90.153 57.667 101.022 69.272 101.009 73.914 109.687 78.549 100.999 90.137 100.986 84.339 90.146"/><line class="cls-2" x1="73.833" y1="62.809" x2="73.833" y2="117.5"/><line class="cls-2" x1="50.394" y1="74.529" x2="97.272" y2="105.781"/><line class="cls-2" x1="97.272" y1="74.529" x2="50.394" y2="105.781"/><polyline class="cls-2" points="66.02 66.716 73.833 70.622 81.646 66.716"/><polyline class="cls-2" points="81.646 113.594 73.833 109.687 66.02 113.594"/><polyline class="cls-2" points="58.717 109.697 57.61 101.032 50.014 96.718"/><polyline class="cls-2" points="88.95 70.612 90.057 79.277 97.652 83.591"/><polyline class="cls-2" points="97.667 96.666 90.08 100.996 88.993 109.664"/><polyline class="cls-2" points="50 83.643 57.586 79.313 58.673 70.645"/></svg>