<svg id="Livello_1" data-name="Livello 1" xmlns="http://www.w3.org/2000/svg" viewBox="0 0 150 150"><defs><style>.cls-1{fill:#fda274;}.cls-2,.cls-4{fill:none;}.cls-2{stroke:#fd7049;}.cls-3{fill:#b38bfc;}.cls-4{stroke:#7f5dc8;}.cls-5{fill:#e6bbfd;}</style></defs><title>Sugar Icons</title><rect class="cls-1" x="52.5" y="47.5" width="5" height="20"/><rect class="cls-1" x="57.5" y="42.5" width="5" height="20"/><rect class="cls-1" x="62.5" y="52.5" width="5" height="20"/><rect class="cls-1" x="67.5" y="47.5" width="5" height="20"/><rect class="cls-1" x="72.5" y="47.5" width="5" height="20"/><rect class="cls-1" x="77.5" y="52.5" width="5" height="20"/><rect class="cls-1" x="82.5" y="42.5" width="5" height="20"/><rect class="cls-1" x="92.5" y="52.5" width="5" height="20"/><rect class="cls-1" x="97.5" y="47.5" width="5" height="20"/><line class="cls-2" x1="52.5" y1="47.5" x2="57.5" y2="47.5"/><polyline class="cls-2" points="57.5 62.5 57.5 42.5 62.5 42.5"/><polyline class="cls-2" points="62.5 52.5 67.5 52.5 67.5 72.5"/><polyline class="cls-2" points="67.5 47.5 72.5 47.5 72.5 67.5"/><line class="cls-2" x1="77.5" y1="47.5" x2="77.5" y2="67.5"/><polyline class="cls-2" points="77.5 72.5 77.5 52.5 82.5 52.5"/><polyline class="cls-2" points="82.5 62.5 82.5 42.5 87.5 42.5"/><polyline class="cls-2" points="92.5 52.5 97.5 52.5 97.5 72.5"/><polyline class="cls-2" points="97.5 67.5 97.5 47.5 102.5 47.5"/><path class="cls-3" d="M102.5,62.5h-50v40s10,5,25,5,25-5,25-5Z"/><path class="cls-4" d="M47.5,57.5v40s10,5,25,5,25-5,25-5v-30"/><circle class="cls-5" cx="77.5" cy="82.5" r="10"/></svg>