<svg id="Livello_1" data-name="Livello 1" xmlns="http://www.w3.org/2000/svg" viewBox="0 0 150 150"><defs><style>.cls-1{fill:#7f5dc8;}.cls-2{fill:none;stroke:#7f5dc8;stroke-miterlimit:10;}.cls-3{fill:#fda274;}.cls-4{fill:#b38bfc;}</style></defs><title>Sugar Icons</title><path class="cls-1" d="M74.271,31.513C63.433,31.9,55,41.135,55,51.979V53.5a3,3,0,0,0,3,3h0a3,3,0,0,0,3-3V51.906A14.269,14.269,0,0,1,74.295,37.517,14.015,14.015,0,0,1,89,51.5v25h6v-25A20,20,0,0,0,74.271,31.513Z"/><path class="cls-2" d="M80,97.893V83.5H70V97.894a3.746,3.746,0,0,1-1.354,2.9,10,10,0,1,0,12.682-.022A3.7,3.7,0,0,1,80,97.893Z"/><circle class="cls-3" cx="75" cy="111.5" r="2.5"/><rect class="cls-4" x="50" y="66.5" width="50" height="32" rx="2.149" ry="2.149"/></svg>