<svg id="Livello_1" data-name="Livello 1" xmlns="http://www.w3.org/2000/svg" viewBox="0 0 150 150"><defs><style>.cls-1{fill:none;stroke:#7f5dc8;stroke-miterlimit:10;}.cls-2{fill:#fda274;}</style></defs><title>Sugar Icons</title><path class="cls-1" d="M85,47.5h0A2.5,2.5,0,0,0,82.5,45h-15A2.5,2.5,0,0,0,65,47.5h0A2.5,2.5,0,0,1,62.5,50h0A2.5,2.5,0,0,0,60,52.5v50a2.5,2.5,0,0,0,2.5,2.5h25a2.5,2.5,0,0,0,2.5-2.5v-50A2.5,2.5,0,0,0,87.5,50h0A2.5,2.5,0,0,1,85,47.5Z"/><rect class="cls-2" x="65" y="95" width="20" height="5" rx="2.5" ry="2.5"/></svg>