<svg id="Livello_1" data-name="Livello 1" xmlns="http://www.w3.org/2000/svg" viewBox="0 0 150 150"><defs><style>.cls-1{fill:#b38bfc;}.cls-2{fill:none;stroke:#7f5dc8;}.cls-3{fill:#fda274;}.cls-4{fill:#e6bbfd;}</style></defs><title>Sugar Icons</title><path class="cls-1" d="M112.351,62.5h0a20.059,20.059,0,0,0-20-20h-25a20.059,20.059,0,0,0-20,20h0"/><path class="cls-1" d="M47.351,92.5a20.059,20.059,0,0,0,20,20h25a20.059,20.059,0,0,0,20-20"/><path class="cls-2" d="M107.351,57.5h0a20.059,20.059,0,0,0-20-20h-25a20.059,20.059,0,0,0-20,20h0"/><path class="cls-2" d="M42.351,87.5a20.059,20.059,0,0,0,20,20h25a20.059,20.059,0,0,0,20-20"/><path class="cls-2" d="M112.649,65.954a2.793,2.793,0,0,1-5,0h0a2.793,2.793,0,0,0-5,0l0,.005a2.793,2.793,0,0,1-5,0l0-.008a2.793,2.793,0,0,0-5,0l0,.008a2.793,2.793,0,0,1-5,0l0-.01a2.793,2.793,0,0,0-5,0l0,.007a2.793,2.793,0,0,1-5,0l0,0a2.793,2.793,0,0,0-5,0l0,0a2.793,2.793,0,0,1-5,0l0,0a2.793,2.793,0,0,0-5,0l-.006.011a2.793,2.793,0,0,1-5,0l0-.005a2.793,2.793,0,0,0-5,0v0a2.793,2.793,0,0,1-5,0l-.007-.013a2.793,2.793,0,0,0-5,0l0,.008a2.793,2.793,0,0,1-5,0"/><rect class="cls-3" x="37.351" y="72.5" width="75" height="10" rx="5" ry="5"/><line class="cls-2" x1="37.351" y1="87.5" x2="112.351" y2="87.5"/><path class="cls-4" d="M61.372,56.332A4.018,4.018,0,0,0,62.4,52.448a4,4,0,0,0-4.915,4.915A4.018,4.018,0,0,0,61.372,56.332Z"/><path class="cls-4" d="M76.183,51.332a4.018,4.018,0,0,0,1.031-3.884A4,4,0,0,0,72.3,52.363,4.018,4.018,0,0,0,76.183,51.332Z"/><path class="cls-4" d="M96.183,51.521a4.018,4.018,0,0,0,1.031-3.884A4,4,0,0,0,92.3,52.552,4.018,4.018,0,0,0,96.183,51.521Z"/><path class="cls-4" d="M86.372,56.332A4.018,4.018,0,0,0,87.4,52.448a4,4,0,0,0-4.915,4.915A4.018,4.018,0,0,0,86.372,56.332Z"/></svg>