<svg id="Livello_1" data-name="Livello 1" xmlns="http://www.w3.org/2000/svg" viewBox="0 0 150 150"><defs><style>.cls-1{fill:#b38bfc;}.cls-2{fill:none;stroke:#7f5dc8;}.cls-3{fill:#7f5dc8;}</style></defs><title>Sugar Icons</title><path class="cls-1" d="M107.045,70.1a27.5,27.5,0,0,0-49.709,1.3A19.995,19.995,0,1,0,50,110h55a20,20,0,0,0,2.045-39.9Z"/><path class="cls-2" d="M25,85a20,20,0,0,0,20,20h55a20,20,0,0,0,2.045-39.9A27.492,27.492,0,0,0,56.294,60"/><path class="cls-3" d="M70,73.512A25.012,25.012,0,0,1,46.489,40,25,25,0,1,0,78.511,72.023,24.949,24.949,0,0,1,70,73.512Z"/></svg>