<svg id="Livello_1" data-name="Livello 1" xmlns="http://www.w3.org/2000/svg" viewBox="0 0 150 150"><defs><style>.cls-1{fill:none;stroke:#7f5dc8;stroke-miterlimit:10;}.cls-2{fill:#b38bfc;}</style></defs><title>Sugar Icons</title><path class="cls-1" d="M99.786,49.428a9.992,9.992,0,0,0-13.681,14.49"/><path class="cls-2" d="M95.6,69.525,94.33,58.079a3.507,3.507,0,0,0-3.1-3.1L79.786,53.708a3.507,3.507,0,0,0-2.867,1.006L47.531,84.1a3.507,3.507,0,0,0,0,4.96L60.249,101.78a3.507,3.507,0,0,0,4.96,0L94.6,72.392A3.507,3.507,0,0,0,95.6,69.525ZM83.414,65.9a2.5,2.5,0,1,1,3.536,0A2.5,2.5,0,0,1,83.414,65.9Z"/><path class="cls-1" d="M86.105,63.918a9.993,9.993,0,1,0,13.681-14.49"/></svg>