<svg id="Livello_1" data-name="Livello 1" xmlns="http://www.w3.org/2000/svg" viewBox="0 0 150 150"><defs><style>.cls-1{fill:#b38bfc;}.cls-2{fill:none;stroke:#7f5dc8;stroke-miterlimit:10;}.cls-3{fill:#7f5dc8;}.cls-4{fill:#fda274;}</style></defs><title>Sugar Icons</title><path class="cls-1" d="M116.139,48a5,5,0,0,0-7.071,0L94.926,62.145h0l2.357-2.357a5,5,0,0,0-7.071-7.071l2.357-2.357A5,5,0,0,0,85.5,43.289l2.357-2.357a5,5,0,0,0-7.071-7.071l-7.071,7.071L62.677,51.967a2.35,2.35,0,0,1-3.938-1.081l-.689-2.7c-1.071-4.2-5.2-6.987-10-7.184a3.028,3.028,0,0,0-3.1,3.753l7.01,27.5c.095.461.21.918.349,1.369l.089.349a3.489,3.489,0,0,1-.915,3.33l-9.59,9.59,21.213,21.213L73.893,97.32l3.355-3.355,7.071-7.071L94.926,76.288h0l21.213-21.213A5,5,0,0,0,116.139,48Z"/><path class="cls-2" d="M56.035,108.107,66.822,97.32l3.355-3.355,7.071-7.071L87.854,76.287h0l21.213-21.213A5,5,0,1,0,102,48L87.855,62.145h0l2.357-2.357a5,5,0,0,0-7.071-7.071L85.5,50.36a5,5,0,0,0-7.071-7.071l2.357-2.357a5,5,0,1,0-7.071-7.071l-7.071,7.071L55.606,51.967a2.35,2.35,0,0,1-3.938-1.081l-.689-2.7c-1.071-4.2-5.2-6.987-10-7.184a3.028,3.028,0,0,0-3.1,3.753l7.01,27.5"/><rect class="cls-3" x="42.499" y="77.501" width="20" height="40" rx="2.681" ry="2.681" transform="translate(-53.567 65.68) rotate(-45)"/><circle class="cls-4" cx="45.428" cy="86.894" r="2.5" transform="translate(-48.138 57.573) rotate(-45)"/></svg>