<svg id="Livello_1" data-name="Livello 1" xmlns="http://www.w3.org/2000/svg" viewBox="0 0 150 150"><defs><style>.cls-1{fill:#e6bbfd;}.cls-2{fill:none;stroke:#7f5dc8;}</style></defs><title>Sugar Icons</title><polygon class="cls-1" points="85.505 74.992 91.304 64.122 79.698 64.135 75.056 55.458 70.422 64.145 58.833 64.158 64.632 74.998 58.833 85.868 70.439 85.855 75.08 94.532 79.715 85.845 91.304 85.832 85.505 74.992"/><line class="cls-2" x1="75" y1="47.655" x2="75" y2="102.345"/><line class="cls-2" x1="51.561" y1="59.374" x2="98.439" y2="90.626"/><line class="cls-2" x1="98.439" y1="59.374" x2="51.561" y2="90.626"/><polyline class="cls-2" points="67.187 51.561 75 55.468 82.813 51.561"/><polyline class="cls-2" points="82.813 98.439 75 94.532 67.187 98.439"/><polyline class="cls-2" points="59.883 94.542 58.777 85.878 51.181 81.564"/><polyline class="cls-2" points="90.117 55.458 91.223 64.122 98.819 68.436"/><polyline class="cls-2" points="98.833 81.511 91.247 85.842 90.16 94.509"/><polyline class="cls-2" points="51.167 68.489 58.753 64.158 59.84 55.491"/></svg>