<svg id="Livello_1" data-name="Livello 1" xmlns="http://www.w3.org/2000/svg" viewBox="0 0 150 150"><defs><style>.cls-1{fill:#b38bfc;}.cls-2{fill:none;stroke:#7f5dc8;stroke-miterlimit:10;}.cls-3{fill:#7f5dc8;}.cls-4{fill:#fda274;}</style></defs><title>Sugar Icons</title><path class="cls-1" d="M115,82.949a5,5,0,0,1-5,5H84.395A2.35,2.35,0,0,0,82.374,91.5L83.8,93.9c2.215,3.731,1.26,8.62-1.993,12.152a3.028,3.028,0,0,1-4.845-.462L62.468,81.182c-.258-.393-.5-.8-.721-1.215l-.184-.31a3.491,3.491,0,0,0-3-1.708H45v-30h55a5,5,0,0,1,0,10h3.333a5,5,0,0,1,0,10h3.333a5,5,0,0,1,0,10H110A5,5,0,0,1,115,82.949Z"/><path class="cls-2" d="M50.255,43.847H90a5,5,0,0,1,0,10h3.333a5,5,0,0,1,0,10h3.333a5,5,0,0,1,0,10H100a5,5,0,0,1,0,10H74.395A2.35,2.35,0,0,0,72.374,87.4L73.8,89.8c2.215,3.731,1.26,8.62-1.993,12.152a3.028,3.028,0,0,1-4.845-.462L52.468,77.079"/><rect class="cls-3" x="35" y="42.949" width="20" height="40" rx="2.681" ry="2.681"/><circle class="cls-4" cx="47.5" cy="75.449" r="2.5"/></svg>