<svg id="Livello_1" data-name="Livello 1" xmlns="http://www.w3.org/2000/svg" viewBox="0 0 150 150"><defs><style>.cls-1{fill:#7f5dc8;}.cls-2{fill:#b38bfc;}.cls-3{fill:#fda274;}</style></defs><title>Sugar Icons</title><rect class="cls-1" x="57.431" y="75.043" width="30" height="5"/><path class="cls-1" d="M72.431,75.043c-8.284,0-15,2.239-15,5v10c0,2.761,6.716,5,15,5s15-2.239,15-5v-10C87.431,77.281,80.715,75.043,72.431,75.043Z"/><ellipse class="cls-2" cx="72.431" cy="75.043" rx="15" ry="5"/><rect class="cls-1" x="62.431" y="70.043" width="30" height="5"/><ellipse class="cls-1" cx="77.431" cy="75.043" rx="15" ry="5"/><ellipse class="cls-2" cx="77.431" cy="70.043" rx="15" ry="5"/><rect class="cls-1" x="57.431" y="65.043" width="30" height="5"/><ellipse class="cls-1" cx="72.431" cy="70.043" rx="15" ry="5"/><ellipse class="cls-2" cx="72.431" cy="65.043" rx="15" ry="5"/><rect class="cls-1" x="74.931" y="47.543" width="5" height="30" transform="translate(9.822 135.591) rotate(-86.143)"/><ellipse class="cls-1" cx="77.263" cy="65.037" rx="5" ry="15" transform="translate(7.176 137.75) rotate(-86.143)"/><ellipse class="cls-2" cx="77.599" cy="60.048" rx="5" ry="15" transform="translate(12.467 133.433) rotate(-86.143)"/><ellipse class="cls-3" cx="77.599" cy="60.048" rx="3.333" ry="10" transform="translate(12.467 133.433) rotate(-86.143)"/></svg>