<svg id="Livello_1" data-name="Livello 1" xmlns="http://www.w3.org/2000/svg" viewBox="0 0 150 150"><defs><style>.cls-1{fill:#b38bfc;}.cls-2,.cls-3{fill:none;stroke-miterlimit:10;}.cls-2{stroke:#7f5dc8;}.cls-3{stroke:#b38bfc;}</style></defs><title>Sugar Icons</title><path class="cls-1" d="M102.692,65H47.439a2.4,2.4,0,0,0-2.427,2.07,2.308,2.308,0,0,0,2.3,2.546h1.786A2.324,2.324,0,0,1,51.3,71.2l6.874,20.621A4.643,4.643,0,0,0,62.577,95H88.192a4.643,4.643,0,0,0,4.4-3.175L99.47,71.2a2.324,2.324,0,0,1,2.205-1.589h.885a2.4,2.4,0,0,0,2.427-2.07A2.308,2.308,0,0,0,102.692,65Z"/><line class="cls-2" x1="84.231" y1="74.231" x2="65.769" y2="74.231"/><line class="cls-2" x1="84.231" y1="78.846" x2="65.769" y2="78.846"/><line class="cls-2" x1="84.231" y1="83.462" x2="65.769" y2="83.462"/><line class="cls-2" x1="84.231" y1="88.077" x2="65.769" y2="88.077"/><path class="cls-2" d="M85,65V60.02C85,57.248,83.119,55,80.8,55H64.2c-2.32,0-4.2,2.248-4.2,5.02V65"/><path class="cls-3" d="M90,65V60.02C90,57.248,88.119,55,85.8,55H69.2c-2.32,0-4.2,2.248-4.2,5.02V65"/></svg>