<svg id="Livello_1" data-name="Livello 1" xmlns="http://www.w3.org/2000/svg" viewBox="0 0 150 150"><defs><style>.cls-1{fill:#fda274;}.cls-2{fill:#b38bfc;}.cls-3,.cls-4{fill:none;stroke-miterlimit:10;}.cls-3{stroke:#fd7049;}.cls-4{stroke:#7f5dc8;}</style></defs><title>Sugar Icons</title><path class="cls-1" d="M92.5,60.015a39.8,39.8,0,0,0-8.087-24.1,1.07,1.07,0,0,0-1.913.661v70.942a2.5,2.5,0,0,0,2.5,2.5h0a2.5,2.5,0,0,0,2.5-2.5v-25.9a8.95,8.95,0,0,1,.9-3.96A39.777,39.777,0,0,0,92.5,60.015Z"/><path class="cls-2" d="M76.25,36.235A1.254,1.254,0,0,0,75,37.485V53.01a1.945,1.945,0,0,1-1.56,1.949,1.876,1.876,0,0,1-2.19-1.849V37.485a1.25,1.25,0,0,0-2.5,0V53.01a1.945,1.945,0,0,1-1.56,1.949A1.876,1.876,0,0,1,65,53.11V37.485a1.25,1.25,0,0,0-2.5,0V54.7a7.943,7.943,0,0,0,3.059,6.279,5.035,5.035,0,0,1,1.941,4v42.387A2.6,2.6,0,0,0,69.742,110a2.5,2.5,0,0,0,2.758-2.487v-42.5a5.135,5.135,0,0,1,2.038-4.079A7.482,7.482,0,0,0,77.5,54.985v-17.5A1.254,1.254,0,0,0,76.25,36.235Z"/><path class="cls-3" d="M92.5,60.015a39.8,39.8,0,0,0-8.087-24.1,1.07,1.07,0,0,0-1.913.661v75.942a2.5,2.5,0,0,0,2.5,2.5h0a2.5,2.5,0,0,0,2.5-2.5v-30.9a8.95,8.95,0,0,1,.9-3.96A39.777,39.777,0,0,0,92.5,60.015Z"/><path class="cls-4" d="M76.25,36.235A1.254,1.254,0,0,0,75,37.485V53.01a1.945,1.945,0,0,1-1.56,1.949,1.876,1.876,0,0,1-2.19-1.849V37.485a1.25,1.25,0,0,0-2.5,0V53.01a1.945,1.945,0,0,1-1.56,1.949A1.876,1.876,0,0,1,65,53.11V37.485a1.25,1.25,0,0,0-2.5,0V54.7a7.943,7.943,0,0,0,3.059,6.279,5.035,5.035,0,0,1,1.941,4v47.387A2.6,2.6,0,0,0,69.742,115a2.5,2.5,0,0,0,2.758-2.487v-47.5a5.135,5.135,0,0,1,2.038-4.079A7.482,7.482,0,0,0,77.5,54.985v-17.5A1.254,1.254,0,0,0,76.25,36.235Z"/></svg>