<svg id="Livello_1" data-name="Livello 1" xmlns="http://www.w3.org/2000/svg" viewBox="0 0 150 150"><defs><style>.cls-1{fill:#7f5dc8;}.cls-2{fill:#b38bfc;}.cls-3{fill:#fda274;}.cls-4{fill:none;stroke:#7f5dc8;stroke-miterlimit:10;}</style></defs><title>Sugar Icons</title><path class="cls-1" d="M85,67.5H70L66.38,95.076A11.188,11.188,0,0,0,77.5,107.5h0A11.188,11.188,0,0,0,88.62,95.076Z"/><path class="cls-2" d="M77.5,44.722h0a27.5,27.5,0,0,1,27.5,27.5v0a3.056,3.056,0,0,1-3.056,3.056H53.056A3.056,3.056,0,0,1,50,72.222v0a27.5,27.5,0,0,1,27.5-27.5Z"/><path class="cls-2" d="M85,50a12.457,12.457,0,0,1,.68-4.041,27.627,27.627,0,0,0-15.222-.323,8.746,8.746,0,1,1-14.524,9.533A27.374,27.374,0,0,0,50,72.222h0a3.056,3.056,0,0,0,3.056,3.056h48.889A3.056,3.056,0,0,0,105,72.222h0a27.4,27.4,0,0,0-2.246-10.892A12.48,12.48,0,0,1,85,50ZM80,72.5a5,5,0,1,1,5-5A5,5,0,0,1,80,72.5Z"/><path class="cls-3" d="M85.68,45.959a12.479,12.479,0,0,0,17.074,15.371A27.573,27.573,0,0,0,85.68,45.959Z"/><circle class="cls-3" cx="80" cy="67.5" r="5"/><path class="cls-3" d="M63.75,60a8.747,8.747,0,0,0,6.708-14.364,27.512,27.512,0,0,0-14.524,9.533A8.742,8.742,0,0,0,63.75,60Z"/><path class="cls-4" d="M80.68,43.737A27.518,27.518,0,0,0,45,69.953a3.072,3.072,0,0,0,3.056,3.1H58.163a5.1,5.1,0,0,1,5.059,5.767L61.38,92.854a11.188,11.188,0,1,0,22.239,0L81.778,78.822a5.1,5.1,0,0,1,5.059-5.767H96.944A3.057,3.057,0,0,0,100,70"/></svg>