<svg id="Livello_1" data-name="Livello 1" xmlns="http://www.w3.org/2000/svg" viewBox="0 0 150 150"><defs><style>.cls-1,.cls-2{fill:none;}.cls-1{stroke:#b38bfc;stroke-width:6px;}.cls-2{stroke:#7f5dc8;}</style></defs><title>Sugar Icons</title><path class="cls-1" d="M65,82.5H45a5.015,5.015,0,0,1-5-5h0a5.015,5.015,0,0,1,5-5H85"/><path class="cls-2" d="M80,82.5H45a5.015,5.015,0,0,1-5-5h0a5.015,5.015,0,0,1,5-5H85"/><path class="cls-1" d="M75,62.5a10,10,0,1,1,10,10"/><path class="cls-2" d="M75,62.5a10,10,0,1,1,10,10"/><path class="cls-2" d="M75,87.5a5,5,0,1,0,5-5"/><path class="cls-2" d="M90,87.5a10,10,0,1,0,10-10"/><line class="cls-2" x1="45" y1="77.5" x2="100" y2="77.5"/></svg>