<svg id="Livello_1" data-name="Livello 1" xmlns="http://www.w3.org/2000/svg" viewBox="0 0 150 150"><defs><style>.cls-1{fill:#b38bfc;}.cls-2{fill:#fda274;}.cls-3{fill:none;stroke:#7f5dc8;}.cls-4{fill:#e6bbfd;}</style></defs><title>Sugar Icons</title><path class="cls-1" d="M72.5,52.5c-8.476,0-14.257,1.8-18.106,3.865a6.85,6.85,0,0,0-1.345,11.128l.007.006-3.095,2.785A7.432,7.432,0,0,0,47.5,75.81V95.067a7.433,7.433,0,0,0,7.433,7.433H90.067A7.433,7.433,0,0,0,97.5,95.067V75.81c0-11.046-20-23.31-20-23.31Z"/><path class="cls-2" d="M77.5,52.5c-8.475,0-14.257,1.8-18.106,3.865a6.85,6.85,0,0,0-1.345,11.128l.007.006-3.095,2.785A7.433,7.433,0,0,0,52.5,75.81V95.067a7.433,7.433,0,0,0,7.433,7.433H95.067a7.433,7.433,0,0,0,7.433-7.433V75.81a7.433,7.433,0,0,0-2.46-5.525l-3.1-2.786.007-.006a6.85,6.85,0,0,0-1.345-11.128C91.757,54.3,85.975,52.5,77.5,52.5Z"/><path class="cls-3" d="M72.5,47.5c-8.475,0-14.257,1.8-18.106,3.865a6.85,6.85,0,0,0-1.345,11.128l.007.006-3.095,2.785A7.433,7.433,0,0,0,47.5,70.81V90.067A7.433,7.433,0,0,0,54.933,97.5H90.067A7.433,7.433,0,0,0,97.5,90.067V70.81a7.433,7.433,0,0,0-2.46-5.525l-3.1-2.786.007-.006a6.85,6.85,0,0,0-1.345-11.128C86.757,49.3,80.975,47.5,72.5,47.5Z"/><circle class="cls-4" cx="75.75" cy="70.75" r="1.75"/><circle class="cls-4" cx="90.75" cy="89.25" r="1.75"/><circle class="cls-4" cx="60.75" cy="85.75" r="1.75"/><circle class="cls-4" cx="84.25" cy="79.25" r="1.75"/><circle class="cls-4" cx="64.25" cy="65.75" r="1.75"/><circle class="cls-4" cx="74.25" cy="85.75" r="1.75"/><circle class="cls-4" cx="85.75" cy="64.25" r="1.75"/><circle class="cls-4" cx="84.25" cy="94.25" r="1.75"/></svg>