<svg id="Livello_1" data-name="Livello 1" xmlns="http://www.w3.org/2000/svg" viewBox="0 0 150 150"><defs><style>.cls-1{fill:#b38bfc;}.cls-2{fill:#fda274;}.cls-3{fill:none;stroke:#7f5dc8;}</style></defs><title>Sugar Icons</title><path class="cls-1" d="M92.5,107.5H83.3a3.3,3.3,0,0,1-3.3-3.3V80.074a3.547,3.547,0,0,1,2.489-3.384A17.378,17.378,0,0,0,94.667,60.167V43.349a2.992,2.992,0,0,0-2.992-2.992H62.992A2.992,2.992,0,0,0,60,43.349V60.167A17.381,17.381,0,0,0,72.453,76.776,3.548,3.548,0,0,1,75,80.178V104.2a3.3,3.3,0,0,1-3.3,3.3H62.5a2.5,2.5,0,0,0,0,5h30a2.5,2.5,0,0,0,0-5Z"/><path class="cls-2" d="M65,54.376V60A12.537,12.537,0,0,0,77.5,72.5h0A12.537,12.537,0,0,0,90,60V54.376A1.876,1.876,0,0,0,88.124,52.5H66.876A1.876,1.876,0,0,0,65,54.376Z"/><path class="cls-3" d="M87.667,37.5V56.167A16.381,16.381,0,0,1,71.333,72.5h0A16.381,16.381,0,0,1,55,56.167V37.5"/></svg>