<svg id="Livello_1" data-name="Livello 1" xmlns="http://www.w3.org/2000/svg" viewBox="0 0 150 150"><defs><style>.cls-1{fill:#b38bfc;}.cls-2{fill:#7f5dc8;}.cls-3,.cls-4{fill:none;stroke-miterlimit:10;}.cls-3{stroke:#fda274;}.cls-4{stroke:#7f5dc8;}</style></defs><title>Sugar Icons</title><path class="cls-1" d="M115,100,101.88,86.88A6.419,6.419,0,0,0,97.341,85H61.419A6.419,6.419,0,0,1,55,78.581V51.419A6.419,6.419,0,0,1,61.419,45h47.162A6.419,6.419,0,0,1,115,51.419Z"/><path class="cls-2" d="M35,110,48.12,96.88A6.419,6.419,0,0,1,52.659,95H88.581A6.419,6.419,0,0,0,95,88.581V61.419A6.419,6.419,0,0,0,88.581,55H41.419A6.419,6.419,0,0,0,35,61.419Z"/><path class="cls-1" d="M115,100,101.88,86.88A6.419,6.419,0,0,0,97.341,85H61.419A6.419,6.419,0,0,1,55,78.581V51.419A6.419,6.419,0,0,1,61.419,45h47.162A6.419,6.419,0,0,1,115,51.419Z"/><line class="cls-3" x1="65" y1="55" x2="90" y2="55"/><line class="cls-3" x1="65" y1="60" x2="85" y2="60"/><line class="cls-3" x1="65" y1="65" x2="90" y2="65"/><line class="cls-3" x1="65" y1="70" x2="75" y2="70"/><line class="cls-3" x1="65" y1="75" x2="95" y2="75"/><rect class="cls-4" x="50" y="40" width="55" height="60" rx="9.648" ry="9.648"/></svg>