<svg id="Livello_1" data-name="Livello 1" xmlns="http://www.w3.org/2000/svg" viewBox="0 0 150 150"><defs><style>.cls-1{fill:#e6bbfd;}.cls-2{fill:#7f5dc8;}.cls-3{fill:#fda274;}.cls-4{fill:#b38bfc;}.cls-5,.cls-6{fill:none;}.cls-5{stroke:#7f5dc8;stroke-miterlimit:10;}</style></defs><title>Sugar Icons</title><rect class="cls-1" x="37.5" y="85" width="75" height="10" rx="2.965" ry="2.965"/><path class="cls-1" d="M37.5,87.5a37.5,37.5,0,0,1,75,0Z"/><path class="cls-2" d="M40.785,95a3.246,3.246,0,0,1-3.147-3.581C39.282,70.222,55.382,53.583,75,53.583s35.718,16.639,37.362,37.836A3.246,3.246,0,0,1,109.215,95H40.785Z"/><path class="cls-3" d="M59.868,53.145h0a4.382,4.382,0,0,0,4.483,2.588h0a4.382,4.382,0,0,1,4.009,6.944h0a4.382,4.382,0,0,0,0,5.176h0A4.382,4.382,0,0,1,64.351,74.8h0a4.382,4.382,0,0,0-4.483,2.588h0a4.382,4.382,0,0,1-8.018,0h0A4.382,4.382,0,0,0,47.366,74.8h0a4.382,4.382,0,0,1-4.009-6.944h0a4.382,4.382,0,0,0,0-5.176h0a4.382,4.382,0,0,1,4.009-6.944h0a4.382,4.382,0,0,0,4.483-2.588h0A4.382,4.382,0,0,1,59.868,53.145Z"/><circle class="cls-3" cx="87.5" cy="70" r="15"/><path class="cls-4" d="M75,57.5a37.325,37.325,0,0,0-16.055,3.609,2.5,2.5,0,0,0-1.445,2.25v9.053a2.557,2.557,0,0,1-1.821,2.5A2.508,2.508,0,0,1,52.5,72.5V70.436a2.468,2.468,0,0,0-4.2-1.764A37.376,37.376,0,0,0,37.5,95h75A37.5,37.5,0,0,0,75,57.5Z"/><path class="cls-5" d="M75,62.5a37.325,37.325,0,0,0-16.055,3.609,2.5,2.5,0,0,0-1.445,2.25v9.053a2.557,2.557,0,0,1-1.821,2.5A2.508,2.508,0,0,1,52.5,77.5V75.436a2.468,2.468,0,0,0-4.2-1.764A37.376,37.376,0,0,0,37.5,100h75A37.5,37.5,0,0,0,75,62.5Z"/><path class="cls-6" d="M112.362,91.419q-.154-1.988-.475-3.919h.613a37.5,37.5,0,0,0-75,0h.613q-.32,1.93-.475,3.919a3.423,3.423,0,0,0,.008.362c-.09,1.062-.146,2.134-.146,3.219h75c0-1.084-.056-2.154-.146-3.215A3.376,3.376,0,0,0,112.362,91.419Z"/></svg>