<svg id="Livello_1" data-name="Livello 1" xmlns="http://www.w3.org/2000/svg" viewBox="0 0 150 150"><defs><style>.cls-1{fill:#7f5dc8;}.cls-2{fill:none;stroke:#7f5dc8;stroke-miterlimit:10;}.cls-3{fill:#b38bfc;}.cls-4{fill:#fda274;}</style></defs><title>Sugar Icons</title><path class="cls-1" d="M67.122,56.542h13.84A6.538,6.538,0,0,1,87.5,63.08V93.554a4.9,4.9,0,0,1-4.9,4.9H67.4a4.9,4.9,0,0,1-4.9-4.9V61.164A4.622,4.622,0,0,1,67.122,56.542Z"/><rect class="cls-2" x="57.5" y="58.458" width="35" height="35" rx="5.036" ry="5.036"/><path class="cls-3" d="M71.511,83.458h6.979A4.011,4.011,0,0,1,82.5,87.469v3.223a2.766,2.766,0,0,1-2.766,2.766H70.266A2.766,2.766,0,0,1,67.5,90.692V87.469A4.011,4.011,0,0,1,71.511,83.458Z"/><path class="cls-3" d="M87.5,58.458a6.916,6.916,0,0,0-6.916-6.916H69.416A6.916,6.916,0,0,0,62.5,58.458v5.357h3.52a1.48,1.48,0,0,1,1.48,1.48v8.163h5V65.295a1.48,1.48,0,0,1,1.48-1.48H76.02a1.48,1.48,0,0,1,1.48,1.48v8.163h5V65.295a1.48,1.48,0,0,1,1.48-1.48H87.5Z"/><path class="cls-4" d="M67.5,73.458h5a0,0,0,0,1,0,0v2.5a2.5,2.5,0,0,1-2.5,2.5h0a2.5,2.5,0,0,1-2.5-2.5v-2.5A0,0,0,0,1,67.5,73.458Z"/><path class="cls-4" d="M77.5,73.458h5a0,0,0,0,1,0,0v2.5a2.5,2.5,0,0,1-2.5,2.5h0a2.5,2.5,0,0,1-2.5-2.5v-2.5A0,0,0,0,1,77.5,73.458Z"/></svg>