<svg id="Livello_1" data-name="Livello 1" xmlns="http://www.w3.org/2000/svg" viewBox="0 0 150 150"><defs><style>.cls-1{fill:#7f5dc8;}.cls-2{fill:#b38bfc;}.cls-3{fill:#fda274;}.cls-4{fill:#fd7049;}.cls-5{fill:none;stroke:#7f5dc8;stroke-miterlimit:10;}</style></defs><title>Sugar Icons</title><rect class="cls-1" x="50" y="89.337" width="50" height="10" rx="5" ry="5" transform="translate(-15.924 15.234) rotate(-10.491)"/><rect class="cls-2" x="50.334" y="92.979" width="10" height="10" rx="5" ry="5" transform="translate(-16.916 11.714) rotate(-10.491)"/><rect class="cls-1" x="50" y="89.337" width="50" height="10" rx="5" ry="5" transform="translate(116.319 207.55) rotate(-161.565)"/><rect class="cls-2" x="88.974" y="95.662" width="10" height="10" rx="5" ry="5" transform="translate(151.293 225.875) rotate(-161.565)"/><path class="cls-3" d="M83.027,70.168l-2.709-1.616A9.4,9.4,0,0,1,77.93,54.34a12.605,12.605,0,0,0-6.784,23.434l5.419,3.231a6.309,6.309,0,0,0,6.462-10.838Z"/><path class="cls-3" d="M90,76.837c0,9.665-6.716,17.5-15,17.5S60,86.5,60,76.837,90,67.172,90,76.837Z"/><path class="cls-4" d="M75,89.337c-7.274,0-13.335-6.042-14.706-14.057A4.373,4.373,0,0,0,60,76.837c0,9.665,6.716,17.5,15,17.5s15-7.835,15-17.5a4.373,4.373,0,0,0-.294-1.557C88.335,83.3,82.274,89.337,75,89.337Z"/><line class="cls-5" x1="85" y1="64.337" x2="85" y2="54.337"/><line class="cls-5" x1="65" y1="54.337" x2="65" y2="44.337"/></svg>