<svg id="Livello_1" data-name="Livello 1" xmlns="http://www.w3.org/2000/svg" viewBox="0 0 150 150"><defs><style>.cls-1{fill:none;stroke:#7f5dc8;stroke-miterlimit:10;}.cls-2{fill:#b38bfc;}.cls-3{fill:#7f5dc8;}.cls-4{fill:#fda274;}</style></defs><title>Sugar Icons</title><rect class="cls-1" x="55" y="55" width="40" height="40"/><rect class="cls-2" x="45" y="45" width="25" height="25" rx="3.292" ry="3.292"/><rect class="cls-2" x="45" y="80" width="25" height="25" rx="3.292" ry="3.292"/><rect class="cls-2" x="80" y="45" width="25" height="25" rx="3.292" ry="3.292"/><rect class="cls-2" x="80" y="80" width="25" height="25" rx="3.292" ry="3.292"/><path class="cls-3" d="M63.834,55H61.166A1.166,1.166,0,0,1,60,53.834V51.166A1.166,1.166,0,0,0,58.834,50H56.166A1.166,1.166,0,0,0,55,51.166v2.668A1.166,1.166,0,0,1,53.834,55H51.166A1.166,1.166,0,0,0,50,56.166v2.668A1.166,1.166,0,0,0,51.166,60h2.668A1.166,1.166,0,0,1,55,61.166v2.668A1.166,1.166,0,0,0,56.166,65h2.668A1.166,1.166,0,0,0,60,63.834V61.166A1.166,1.166,0,0,1,61.166,60h2.668A1.166,1.166,0,0,0,65,58.834V56.166A1.166,1.166,0,0,0,63.834,55Z"/><rect class="cls-4" x="85" y="85" width="15" height="5" rx="1.166" ry="1.166"/><rect class="cls-4" x="85" y="95" width="15" height="5" rx="1.166" ry="1.166"/><path class="cls-3" d="M60.211,86.253,58.324,88.14a1.166,1.166,0,0,1-1.649,0l-1.887-1.887a1.166,1.166,0,0,0-1.649,0L51.253,88.14a1.166,1.166,0,0,0,0,1.649l1.887,1.887a1.166,1.166,0,0,1,0,1.649l-1.887,1.887a1.166,1.166,0,0,0,0,1.649l1.887,1.887a1.166,1.166,0,0,0,1.649,0l1.887-1.887a1.166,1.166,0,0,1,1.649,0l1.887,1.887a1.166,1.166,0,0,0,1.649,0l1.887-1.887a1.166,1.166,0,0,0,0-1.649L61.86,93.324a1.166,1.166,0,0,1,0-1.649l1.887-1.887a1.166,1.166,0,0,0,0-1.649L61.86,86.253A1.166,1.166,0,0,0,60.211,86.253Z"/><circle class="cls-3" cx="92.5" cy="62.5" r="2.5"/><circle class="cls-3" cx="92.5" cy="52.5" r="2.5"/></svg>