<svg id="Livello_1" data-name="Livello 1" xmlns="http://www.w3.org/2000/svg" viewBox="0 0 150 150"><defs><style>.cls-1{fill:#b38bfc;}.cls-2{fill:#7f5dc8;}.cls-3{fill:none;stroke:#7f5dc8;stroke-miterlimit:10;}</style></defs><title>Sugar Icons</title><path class="cls-1" d="M55,62.375l20,10v25L55.892,87.821A1.613,1.613,0,0,1,55,86.378Z"/><path class="cls-2" d="M95,62.375l-20,10v25l19.108-9.554A1.613,1.613,0,0,0,95,86.378Z"/><path class="cls-1" d="M74.056,52.848,55,62.375l20,10,20-10L75.945,52.848A2.112,2.112,0,0,0,74.056,52.848Z"/><path class="cls-3" d="M76.1,49.136a2.465,2.465,0,0,0-2.205,0L51.649,60.26V88.285A1.883,1.883,0,0,0,52.69,89.97L75,101.125,97.31,89.97a1.883,1.883,0,0,0,1.041-1.685V60.26Z"/><polygon class="cls-2" points="67.189 93.47 61.456 90.603 61.675 65.713 81.675 55.713 87.266 58.508 67.265 68.508 67.189 93.47"/></svg>