<svg id="Livello_1" data-name="Livello 1" xmlns="http://www.w3.org/2000/svg" viewBox="0 0 150 150"><defs><style>.cls-1{fill:none;stroke:#7f5dc8;}.cls-2{fill:#7f5dc8;}.cls-3{fill:#b38bfc;}.cls-4{fill:#fda274;}.cls-5{fill:#e6bbfd;}</style></defs><title>Sugar Icons</title><path class="cls-1" d="M67.277,73.878a7.522,7.522,0,0,1-7.5-7.5h0a7.522,7.522,0,0,1,7.5-7.5l12.681,0a5.015,5.015,0,0,0,5-5,4.876,4.876,0,0,0-.458-2.072c-.307-.657.293-1.187.789-.82a11.3,11.3,0,0,1,4.669,9.073V62.7a11.1,11.1,0,0,1-.193,2.018"/><path class="cls-2" d="M87.043,57.06a4.879,4.879,0,0,1,.457,2.072,5.015,5.015,0,0,1-5,5H70a7.5,7.5,0,0,0,0,15H81.32A11.216,11.216,0,0,0,92.307,69.97a11.1,11.1,0,0,0,.193-2.018V65.312a11.3,11.3,0,0,0-4.669-9.073C87.335,55.873,86.735,56.4,87.043,57.06Z"/><rect class="cls-3" x="57.841" y="71.544" width="35" height="15" rx="7.5" ry="7.5" transform="matrix(0.966, 0.259, -0.259, 0.966, 23.025, -16.806)"/><polygon class="cls-4" points="79.788 99.131 75 99.131 75 79.925 84.576 79.925 79.788 99.131"/><polygon class="cls-4" points="79.788 99.131 75 99.131 75 79.925 84.576 79.925 79.788 99.131"/><polygon class="cls-5" points="70.212 99.131 75 99.131 75 79.925 65.424 79.925 70.212 99.131"/><polygon class="cls-4" points="79.788 99.131 75 99.131 75 79.925 84.576 79.925 79.788 99.131"/><path class="cls-5" d="M82.806,99.131H79.788l4.788-19.207h5.244A3.083,3.083,0,0,1,92.5,84.131L85.367,97.544A2.862,2.862,0,0,1,82.806,99.131Z"/><path class="cls-4" d="M67.194,99.131h3.019L65.424,79.925H60.181A3.083,3.083,0,0,0,57.5,84.131l7.133,13.413A2.862,2.862,0,0,0,67.194,99.131Z"/><circle class="cls-4" cx="85.75" cy="66.881" r="1.75"/><circle class="cls-4" cx="65.75" cy="75.881" r="1.75"/><circle class="cls-4" cx="75.75" cy="67.381" r="1.75"/></svg>