<svg id="Livello_1" data-name="Livello 1" xmlns="http://www.w3.org/2000/svg" viewBox="0 0 150 150"><defs><style>.cls-1,.cls-4{fill:none;stroke-miterlimit:10;}.cls-1{stroke:#fda274;stroke-linecap:round;stroke-width:3px;}.cls-2{fill:#7f5dc8;}.cls-3{fill:#b38bfc;}.cls-4{stroke:#7f5dc8;}</style></defs><title>Sugar Icons</title><line class="cls-1" x1="90" y1="69.501" x2="90" y2="74.501"/><rect class="cls-2" x="65" y="59.501" width="25" height="30" rx="5.667" ry="5.667"/><path class="cls-3" d="M70,89.5H85a0,0,0,0,1,0,0v11a4,4,0,0,1-4,4H74a4,4,0,0,1-4-4v-11A0,0,0,0,1,70,89.5Z"/><path class="cls-3" d="M74,45.5H81a4,4,0,0,1,4,4v10a0,0,0,0,1,0,0H70a0,0,0,0,1,0,0v-10A4,4,0,0,1,74,45.5Z"/><rect class="cls-2" x="75" y="94.501" width="5" height="5" rx="2.5" ry="2.5"/><rect class="cls-4" x="60" y="54.501" width="25" height="30" rx="5.667" ry="5.667"/></svg>