<svg id="Livello_1" data-name="Livello 1" xmlns="http://www.w3.org/2000/svg" viewBox="0 0 150 150"><defs><style>.cls-1{fill:#7f5dc8;}.cls-2{fill:#b38bfc;}.cls-3{fill:none;stroke:#7f5dc8;stroke-miterlimit:10;}</style></defs><title>Sugar Icons</title><path class="cls-1" d="M94.062,42.415a1.519,1.519,0,0,0-1.888.208l-45.1,45.1c-8,8-8.1,16.269-8.1,16.617a3.453,3.453,0,0,0,1.015,2.454,3.507,3.507,0,0,0,5.984-2.415c0-.237.2-5.857,6.046-11.706L97.749,46.948a1.519,1.519,0,0,0-.26-2.356Z"/><path class="cls-2" d="M83.874,46.651l-8.567,8.567A1.681,1.681,0,0,0,75.14,57.4l17.8,24.272a1.666,1.666,0,0,0,2.029.547,32.588,32.588,0,0,0,15.907-15.907,1.666,1.666,0,0,0-.547-2.029l-24.272-17.8A1.681,1.681,0,0,0,83.874,46.651Z"/><path class="cls-3" d="M78.036,46.462l-8.567,8.567a1.681,1.681,0,0,0-.167,2.183L87.1,81.484a1.666,1.666,0,0,0,2.029.547,32.588,32.588,0,0,0,15.907-15.907,1.666,1.666,0,0,0-.547-2.029L80.219,46.3A1.681,1.681,0,0,0,78.036,46.462Z"/></svg>