<svg id="Livello_1" data-name="Livello 1" xmlns="http://www.w3.org/2000/svg" viewBox="0 0 150 150"><defs><style>.cls-1{fill:#7f5dc8;}.cls-2{fill:none;stroke:#7f5dc8;stroke-miterlimit:10;}.cls-3{fill:#b38bfc;}.cls-4{fill:#fda274;}</style></defs><title>Sugar Icons</title><path class="cls-1" d="M103.885,90H84.4a6.115,6.115,0,0,1-5.8-4.182l-1.428-4.286a2.294,2.294,0,0,0-4.353,0l-1.429,4.288A6.115,6.115,0,0,1,65.593,90H46.115A6.115,6.115,0,0,1,40,83.885V76.115A6.115,6.115,0,0,1,46.115,70h57.771A6.115,6.115,0,0,1,110,76.115v7.771A6.115,6.115,0,0,1,103.885,90Z"/><path class="cls-2" d="M80,80H107.45A7.55,7.55,0,0,0,115,72.45v-4.9A7.55,7.55,0,0,0,107.45,60H42.55A7.55,7.55,0,0,0,35,67.55v4.9A7.55,7.55,0,0,0,42.55,80H70"/><rect class="cls-3" x="45" y="75" width="20" height="10" rx="2.426" ry="2.426"/><rect class="cls-4" x="85" y="75" width="20" height="10" rx="2.426" ry="2.426"/></svg>