<svg id="Livello_1" data-name="Livello 1" xmlns="http://www.w3.org/2000/svg" viewBox="0 0 150 150"><defs><style>.cls-1{fill:#b38bfc;}.cls-2,.cls-4{fill:none;stroke:#7f5dc8;stroke-miterlimit:10;}.cls-3{fill:#fda274;}.cls-4{stroke-linecap:round;}</style></defs><title>Sugar Icons</title><circle class="cls-1" cx="99.917" cy="80.75" r="12.5"/><circle class="cls-1" cx="59.917" cy="80.75" r="12.5"/><path class="cls-2" d="M62.921,83.25H75.7a3.426,3.426,0,0,0,2.741-1.37L90.7,65.537a1.429,1.429,0,0,0-1.143-2.287H74.13a3.426,3.426,0,0,0-2.741,1.37L60.719,78.846A2.752,2.752,0,0,0,62.921,83.25Z"/><line class="cls-2" x1="72.417" y1="58.25" x2="77.417" y2="83.25"/><path class="cls-3" d="M77.417,59.75h-8.5a1.5,1.5,0,0,1,0-3h8.5a1.5,1.5,0,0,1,0,3Z"/><path class="cls-4" d="M87.417,58.25h2.34a3.244,3.244,0,0,1,3.181,2.608l3.5,17.489a6.1,6.1,0,0,0,5.981,4.9h0"/><line class="cls-4" x1="61.25" y1="63.25" x2="50.884" y2="63.25"/><line class="cls-4" x1="42.917" y1="78.083" x2="37.583" y2="78.083"/><line class="cls-4" x1="42.917" y1="83.25" x2="37.583" y2="83.25"/></svg>