<svg id="Livello_1" data-name="Livello 1" xmlns="http://www.w3.org/2000/svg" viewBox="0 0 150 150"><defs><style>.cls-1{fill:none;stroke:#7f5dc8;stroke-miterlimit:10;}.cls-2{fill:#7f5dc8;}.cls-3{fill:#b38bfc;}.cls-4{fill:#fda274;}</style></defs><title>Sugar Icons</title><path class="cls-1" d="M64.63,85h40.74a1.14,1.14,0,0,0,.948-1.772L98.681,71.772A1.14,1.14,0,0,1,99.63,70h.74a1.14,1.14,0,0,0,.948-1.772L93.681,56.772A1.14,1.14,0,0,1,94.63,55h.74a1.14,1.14,0,0,0,.948-1.772L88.887,42.08A4.671,4.671,0,0,0,85,40h0a4.671,4.671,0,0,0-3.887,2.08L73.681,53.228A1.14,1.14,0,0,0,74.63,55h.74a1.14,1.14,0,0,1,.948,1.772L68.681,68.228A1.14,1.14,0,0,0,69.63,70h.74a1.14,1.14,0,0,1,.948,1.772L63.681,83.228A1.14,1.14,0,0,0,64.63,85Z"/><path class="cls-2" d="M44.63,95H85.37a1.14,1.14,0,0,0,.948-1.772L78.681,81.772A1.14,1.14,0,0,1,79.63,80h.74a1.14,1.14,0,0,0,.948-1.772L73.681,66.772A1.14,1.14,0,0,1,74.63,65h.74a1.14,1.14,0,0,0,.948-1.772L68.887,52.08A4.671,4.671,0,0,0,65,50h0a4.671,4.671,0,0,0-3.887,2.08L53.681,63.228A1.14,1.14,0,0,0,54.63,65h.74a1.14,1.14,0,0,1,.948,1.772L48.681,78.228A1.14,1.14,0,0,0,49.63,80h.74a1.14,1.14,0,0,1,.948,1.772L43.681,93.228A1.14,1.14,0,0,0,44.63,95Z"/><path class="cls-3" d="M64.63,110h40.74a1.14,1.14,0,0,0,.948-1.772L98.681,96.772A1.14,1.14,0,0,1,99.63,95h.74a1.14,1.14,0,0,0,.948-1.772L93.681,81.772A1.14,1.14,0,0,1,94.63,80h.74a1.14,1.14,0,0,0,.948-1.772L88.887,67.08A4.671,4.671,0,0,0,85,65h0a4.671,4.671,0,0,0-3.887,2.08L73.681,78.228A1.14,1.14,0,0,0,74.63,80h.74a1.14,1.14,0,0,1,.948,1.772L68.681,93.228A1.14,1.14,0,0,0,69.63,95h.74c.91,0-8.858-7.5.948,1.772l-7.637,11.456A1.14,1.14,0,0,0,64.63,110Z"/><circle class="cls-4" cx="59.012" cy="77.5" r="2.5"/><circle class="cls-4" cx="64.012" cy="87.5" r="2.5"/></svg>