<svg id="Livello_1" data-name="Livello 1" xmlns="http://www.w3.org/2000/svg" viewBox="0 0 150 150"><defs><style>.cls-1{fill:none;stroke:#7f5dc8;stroke-miterlimit:10;}.cls-2{fill:#b38bfc;}.cls-3{fill:#7f5dc8;}.cls-4{fill:#fda274;}</style></defs><title>Sugar Icons</title><path class="cls-1" d="M65,106.07c0,6.9-25,6.9-25,0a12.5,12.5,0,0,1,25,0Z"/><rect class="cls-2" x="42.5" y="71.07" width="20" height="25" rx="10" ry="10"/><path class="cls-3" d="M63.928,77.893q-.058-.284-.131-.563A11.608,11.608,0,0,0,62.471,74.2a11.788,11.788,0,0,0-5.441-4.708q-.261-.111-.529-.21-.535-.2-1.094-.342a11.562,11.562,0,0,0-2.309-.354q-.3-.015-.6-.015c-.215,0-.428.007-.64.018-.069,0-.137.011-.206.016-.143.01-.285.021-.426.037-.08.009-.159.02-.239.031-.129.017-.258.035-.386.056-.082.014-.163.029-.244.044q-.187.035-.373.076l-.239.056c-.125.031-.249.064-.373.1-.075.021-.149.041-.223.064-.132.04-.263.083-.394.128-.062.021-.125.041-.187.064-.159.057-.316.119-.472.183l-.1.038q-.289.122-.571.259l-.014.007q-.267.13-.526.274c-.042.023-.083.048-.125.072-.135.077-.269.156-.4.238l-.148.1q-.184.118-.363.243l-.149.106q-.177.127-.348.261l-.138.108c-.119.1-.235.193-.35.293l-.113.1q-.193.172-.379.353l-.062.06a11.631,11.631,0,0,0-3.482,8.292V86.9A1.667,1.667,0,0,0,42.5,88.57h.331a9.9,9.9,0,0,1-.331-2.5v-2.2a2.8,2.8,0,0,1,2.8-2.8h4.8A16.224,16.224,0,0,0,62.4,83.153a2.789,2.789,0,0,1,.1.715v2.2a9.9,9.9,0,0,1-.331,2.5H62.5A1.667,1.667,0,0,0,64.167,86.9V80.237A11.6,11.6,0,0,0,63.928,77.893Z"/><circle class="cls-4" cx="56.25" cy="99.998" r="1.25"/><path class="cls-1" d="M108.445,73.74c0,6.441-18.66,6.441-18.66,0s4.177-11.662,9.33-11.662S108.445,67.3,108.445,73.74Z"/><rect class="cls-2" x="89.785" y="41.085" width="18.66" height="23.325" rx="9.33" ry="9.33"/><circle class="cls-4" cx="102.614" cy="68.074" r="1.166"/><path class="cls-3" d="M109.778,47.45q-.054-.265-.122-.525A10.83,10.83,0,0,0,108.418,44a11,11,0,0,0-5.077-4.393q-.244-.1-.494-.2-.5-.184-1.021-.319a10.788,10.788,0,0,0-2.154-.33q-.277-.014-.558-.014c-.2,0-.4.006-.6.017-.064,0-.128.01-.192.015-.133.01-.266.02-.4.034-.075.008-.149.019-.223.029-.121.016-.241.032-.36.052-.076.013-.152.027-.228.041q-.175.033-.348.071l-.223.052c-.117.029-.233.059-.348.092-.07.02-.139.039-.208.06-.124.037-.246.078-.367.119-.058.02-.117.039-.175.059-.148.054-.295.111-.44.171l-.089.035q-.27.114-.532.241l-.013.007q-.249.122-.491.256l-.116.067c-.126.072-.251.145-.374.222l-.138.089q-.171.11-.338.226l-.139.1q-.165.119-.325.244l-.128.1c-.111.089-.219.18-.327.274l-.105.091q-.18.161-.353.33l-.058.056a10.851,10.851,0,0,0-3.249,7.736v11.44a3.509,3.509,0,0,1-3.5,3.5,3.464,3.464,0,0,1-.964-.139,5.826,5.826,0,0,0,11.43-.906,9.4,9.4,0,0,1-5.108-6.119h0a9.481,9.481,0,0,1-.286-1.712c-.014-.205-.023-.412-.023-.62V53.024a2.61,2.61,0,0,1,2.61-2.61H96.87a15.137,15.137,0,0,0,11.486,1.943,2.6,2.6,0,0,1,.089.667V55.08c0,.2-.009.407-.022.608a9.481,9.481,0,0,1-.287,1.725h.005a9.4,9.4,0,0,1-4.767,5.953,9.371,9.371,0,0,1,1.478,1.183,4.6,4.6,0,0,0,.482.028A4.679,4.679,0,0,0,110,59.91V49.637A10.825,10.825,0,0,0,109.778,47.45Z"/><path class="cls-1" d="M50,63.57A16.985,16.985,0,0,1,66.985,46.585H80"/><path class="cls-1" d="M100,83.57a16.985,16.985,0,0,1-16.985,16.985H75"/></svg>