<svg id="Livello_1" data-name="Livello 1" xmlns="http://www.w3.org/2000/svg" viewBox="0 0 150 150"><defs><style>.cls-1{fill:none;stroke:#7f5dc8;stroke-miterlimit:10;}.cls-2{fill:#fda274;}</style></defs><title>Sugar Icons</title><path class="cls-1" d="M73.107,80l1.828-2.368a1.322,1.322,0,0,1,2.112.025l.8,1.084a1.322,1.322,0,0,0,2.132,0l.769-1.048a1.322,1.322,0,0,1,2.132,0l.769,1.048a1.322,1.322,0,0,0,2.132,0l.787-1.072a1.323,1.323,0,0,1,2.107-.032c.732.931,1.614,1.972,1.842,1.9A10,10,0,0,0,97.5,70H73.106a3.747,3.747,0,0,1-2.9-1.354,10,10,0,1,0,.022,12.682A3.7,3.7,0,0,1,73.107,80Z"/><circle class="cls-2" cx="59.5" cy="75" r="2.5"/></svg>