<svg id="Livello_1" data-name="Livello 1" xmlns="http://www.w3.org/2000/svg" viewBox="0 0 150 150"><defs><style>.cls-1{fill:#b38bfc;}.cls-2{fill:none;stroke:#7f5dc8;}.cls-3{fill:#fda274;}</style></defs><title>Sugar Icons</title><path class="cls-1" d="M82.5,56.8V36.995A2,2,0,0,0,80.505,35h-6.01A2,2,0,0,0,72.5,36.995V56.8a5.006,5.006,0,0,1-3,4.582c-4.367,1.915-7,2.96-7,8.615v42.888a6.428,6.428,0,0,0,5.383,6.381,63.584,63.584,0,0,0,19.037.03,6.509,6.509,0,0,0,5.58-6.414V70c0-5.655-2.637-6.7-7-8.615A5.006,5.006,0,0,1,82.5,56.8Z"/><path class="cls-2" d="M87.5,75V65c0-5.171-2.2-6.487-5.92-8.139a6.876,6.876,0,0,1-4.08-6.28V31.995A2,2,0,0,0,75.505,30h-6.01A2,2,0,0,0,67.5,31.995V50.582a6.876,6.876,0,0,1-4.08,6.28C59.7,58.513,57.5,59.829,57.5,65v42.888a6.428,6.428,0,0,0,5.383,6.381,63.584,63.584,0,0,0,19.037.03,6.509,6.509,0,0,0,5.58-6.414"/><rect class="cls-3" x="67.5" y="80" width="25" height="25"/></svg>