<svg id="Livello_1" data-name="Livello 1" xmlns="http://www.w3.org/2000/svg" viewBox="0 0 150 150"><defs><style>.cls-1{fill:#b38bfc;}.cls-2{fill:#7f5dc8;}.cls-3{fill:none;stroke:#7f5dc8;stroke-miterlimit:10;}.cls-4{fill:#fda274;}</style></defs><title>Sugar Icons</title><path class="cls-1" d="M58.824,98.529A11.357,11.357,0,0,1,47.5,87.206v6.471a11.324,11.324,0,0,0,22.647,0V87.206A11.357,11.357,0,0,1,58.824,98.529Z"/><path class="cls-1" d="M91.176,98.529A11.357,11.357,0,0,1,79.853,87.206v6.471a11.324,11.324,0,0,0,22.647,0V87.206A11.357,11.357,0,0,1,91.176,98.529Z"/><ellipse class="cls-2" cx="58.824" cy="90" rx="11.324" ry="10"/><ellipse class="cls-2" cx="91.176" cy="90" rx="11.324" ry="10"/><path class="cls-2" d="M62.059,68.487a8.112,8.112,0,0,1,8.088,8.088V58.088a8.088,8.088,0,1,0-16.176,0V76.576A8.112,8.112,0,0,1,62.059,68.487Z"/><rect class="cls-3" x="42.5" y="45" width="65" height="35" rx="17.5" ry="17.5"/><path class="cls-2" d="M87.941,68.487a8.112,8.112,0,0,1,8.088,8.088V58.088a8.088,8.088,0,0,0-16.176,0V76.576A8.112,8.112,0,0,1,87.941,68.487Z"/><path class="cls-1" d="M91.176,80.735A11.357,11.357,0,0,1,102.5,92.059V67.794a11.324,11.324,0,0,0-22.647,0V92.059A11.357,11.357,0,0,1,91.176,80.735Z"/><path class="cls-1" d="M58.824,82.353A11.357,11.357,0,0,1,70.147,93.676V67.794a11.324,11.324,0,0,0-22.647,0V93.676A11.357,11.357,0,0,1,58.824,82.353Z"/><rect class="cls-2" x="70.147" y="66.176" width="9.706" height="19.412"/><rect class="cls-4" x="73.382" y="69.412" width="3.235" height="9.706" rx="1.618" ry="1.618"/></svg>