<svg id="Livello_1" data-name="Livello 1" xmlns="http://www.w3.org/2000/svg" viewBox="0 0 150 150"><defs><style>.cls-1{fill:#b38bfc;}.cls-2{fill:none;stroke:#7f5dc8;stroke-miterlimit:10;}.cls-3{fill:#fda274;}</style></defs><title>Sugar Icons</title><path class="cls-1" d="M102.448,104.029,98.635,60.9a3.679,3.679,0,0,0-3.623-3.4H59.988a3.679,3.679,0,0,0-3.623,3.4l-3.813,43.127a3.275,3.275,0,0,0,4.3,3.35c9.072-2.274,32.221-2.274,41.293,0A3.275,3.275,0,0,0,102.448,104.029Z"/><path class="cls-2" d="M97.448,99.029,93.635,55.9a3.679,3.679,0,0,0-3.623-3.4H54.988a3.679,3.679,0,0,0-3.623,3.4L47.552,99.029a3.275,3.275,0,0,0,4.3,3.35c9.072-2.274,32.221-2.274,41.293,0A3.275,3.275,0,0,0,97.448,99.029Z"/><path class="cls-2" d="M62.462,59.476V53.744A11.277,11.277,0,0,1,73.705,42.5h0A11.277,11.277,0,0,1,84.949,53.744v5.732"/><circle class="cls-3" cx="75.517" cy="81.853" r="6.945"/></svg>